<?xml version="1.0" standalone="no"?>
<!DOCTYPE svg PUBLIC "-//W3C//DTD SVG 1.1//EN" "http://www.w3.org/Graphics/SVG/1.1/DTD/svg11.dtd">
<svg version="1.1" xmlns="http://www.w3.org/2000/svg" viewBox="0 0 597.9214534640291 513.2571065499362" width="597.9214534640291" height="513.2571065499362"><!-- svg-source:excalidraw --><metadata></metadata><defs><style class="style-fonts">
      </style></defs><g stroke-linecap="round"><g transform="translate(12.737403320993508 52.15305894203607) rotate(0 89.0349935655995 96.62227353429768)" fill-rule="evenodd"><path d="M-0.15 1.13 C0.58 30.77, 2.65 144.66, 2.52 177.1 C2.39 209.55, -1.85 191.58, -0.93 195.8 C-0.01 200.02, 1.05 200.22, 8.05 202.42 C15.05 204.62, 26.72 207.41, 41.08 209 C55.43 210.6, 76.84 211.62, 94.19 211.99 C111.54 212.35, 132.08 212.96, 145.18 211.17 C158.29 209.39, 167.17 204.32, 172.8 201.27 C178.43 198.23, 178 196.73, 178.96 192.88 C179.93 189.03, 178.56 208.28, 178.58 178.17 C178.61 148.07, 178.98 41.98, 179.13 12.25 C179.28 -17.48, 182.03 3.18, 179.49 -0.21 C176.95 -3.61, 170.1 -5.63, 163.88 -8.11 C157.67 -10.59, 155.44 -13.28, 142.2 -15.09 C128.96 -16.91, 100.88 -18.89, 84.44 -19.02 C68 -19.15, 56.76 -17.76, 43.56 -15.86 C30.36 -13.96, 12.19 -10.32, 5.26 -7.64 C-1.67 -4.95, 2.74 -0.83, 1.97 0.27 C1.2 1.37, 0.6 -1.13, 0.63 -1.05" stroke="none" stroke-width="0" fill="#228be6" fill-rule="evenodd"></path><path d="M-1.05 -0.19 C-0.98 28.96, 0.81 141.44, 1 173.98 C1.19 206.53, -1.38 190.22, 0.09 195.1 C1.55 199.98, 3.11 200.6, 9.8 203.28 C16.48 205.96, 25.99 209.52, 40.2 211.2 C54.42 212.87, 77.41 213.79, 95.11 213.32 C112.82 212.85, 133.3 210.69, 146.43 208.39 C159.57 206.09, 168.5 201.85, 173.92 199.53 C179.34 197.22, 178.26 198.15, 178.95 194.49 C179.65 190.83, 178.14 207.67, 178.1 177.58 C178.06 147.49, 178.91 43.78, 178.74 13.93 C178.56 -15.92, 179.32 2.35, 177.06 -1.54 C174.79 -5.43, 170.77 -7.16, 165.13 -9.38 C159.49 -11.61, 156.17 -13.27, 143.21 -14.91 C130.25 -16.55, 104.33 -18.9, 87.38 -19.23 C70.43 -19.55, 54.81 -18.82, 41.5 -16.87 C28.19 -14.91, 14.5 -10.43, 7.52 -7.5 C0.54 -4.56, 1.02 -0.45, -0.38 0.74 C-1.78 1.92, -0.76 -0.16, -0.88 -0.4 M0.61 -1.33 C0.5 28.01, 0.47 142.05, 0.27 175.04 C0.06 208.02, -2.33 191.69, -0.65 196.56 C1.03 201.44, 3.26 201.76, 10.34 204.3 C17.42 206.85, 27.49 210.49, 41.82 211.85 C56.15 213.21, 78.85 212.74, 96.32 212.46 C113.79 212.19, 133.34 211.9, 146.64 210.2 C159.93 208.49, 170.97 204.99, 176.11 202.24 C181.24 199.49, 177.07 197.85, 177.43 193.69 C177.8 189.52, 178.02 207.1, 178.28 177.24 C178.55 147.38, 178.93 44.47, 179.03 14.53 C179.14 -15.41, 181.28 1.72, 178.9 -2.41 C176.52 -6.54, 170.71 -8.09, 164.74 -10.26 C158.78 -12.43, 155.9 -13.79, 143.11 -15.44 C130.32 -17.1, 104.86 -20.08, 88 -20.19 C71.15 -20.3, 55.64 -18.33, 42 -16.09 C28.37 -13.85, 13.49 -9.69, 6.18 -6.75 C-1.12 -3.81, -0.94 0.48, -1.81 1.55 C-2.69 2.61, 0.83 -0.23, 0.93 -0.35" stroke="#343a40" stroke-width="2" fill="none"></path></g></g><mask></mask><g stroke-linecap="round"><g transform="translate(14.348009702372565 123.52371704265965) rotate(0 87.92714383031205 6.681855405076533)"><path d="M0.41 -0.92 C2.3 0.24, 5.37 4.92, 10.33 6.79 C15.28 8.65, 23.58 9.22, 30.15 10.26 C36.72 11.3, 39.51 12.26, 49.77 13.04 C60.04 13.82, 76.32 15.63, 91.73 14.93 C107.14 14.23, 129.96 10.79, 142.22 8.85 C154.48 6.91, 159.56 5.1, 165.31 3.27 C171.05 1.44, 175.03 -1.09, 176.69 -2.14 M-0.84 1.2 C1 2, 4.32 3.09, 9.41 4.81 C14.5 6.53, 23.01 10.51, 29.68 11.5 C36.35 12.49, 38.77 10.08, 49.44 10.74 C60.12 11.41, 78.1 15.46, 93.72 15.5 C109.35 15.54, 131.23 12.72, 143.19 10.96 C155.15 9.21, 160.06 7.12, 165.5 4.97 C170.93 2.83, 173.95 -0.36, 175.82 -1.9" stroke="#4dabf7" stroke-width="2" fill="none"></path></g></g><mask></mask><g stroke-linecap="round"><g transform="translate(13.900663497319783 59.73028046751779) rotate(0 87.67400107567232 4.720720482647664)"><path d="M0.06 0.28 C1.69 1.35, 5.57 3.89, 10.2 5.52 C14.84 7.15, 21.26 8.97, 27.87 10.06 C34.47 11.15, 39.34 11.71, 49.85 12.06 C60.37 12.41, 75.68 12.86, 90.96 12.15 C106.25 11.44, 129.09 9.06, 141.57 7.82 C154.04 6.57, 160.31 6.64, 165.83 4.69 C171.35 2.75, 173.01 -2.27, 174.66 -3.86 M-1.37 -0.62 C0.12 0.73, 4.29 5.55, 9.55 6.98 C14.81 8.42, 23.46 6.92, 30.19 7.98 C36.91 9.04, 39.48 12.67, 49.9 13.35 C60.32 14.02, 77.27 12.62, 92.71 12.03 C108.15 11.45, 130.21 11.18, 142.53 9.83 C154.85 8.47, 160.93 6.24, 166.62 3.92 C172.32 1.6, 175.48 -2.94, 176.72 -4.08" stroke="#4dabf7" stroke-width="2" fill="none"></path></g></g><mask></mask><g stroke-linecap="round"><g transform="translate(13.971766946046046 246.7320403198421) rotate(0 86.7887283129736 7.169695108070471)"><path d="M0.56 -0.15 C2.07 1.09, 4.64 5.37, 9.13 7.72 C13.61 10.08, 21 12.78, 27.46 13.96 C33.92 15.15, 37.31 14.63, 47.89 14.83 C58.47 15.04, 74.81 15.21, 90.94 15.19 C107.07 15.17, 132.66 15.85, 144.66 14.71 C156.66 13.57, 158 10.79, 162.92 8.38 C167.84 5.96, 172.42 1.58, 174.18 0.2 M-0.6 -1.27 C1.26 -0.42, 6.75 3.68, 11.27 5.86 C15.78 8.04, 20.42 10.2, 26.5 11.8 C32.57 13.39, 36.67 14.9, 47.7 15.43 C58.73 15.96, 76.86 15.17, 92.68 14.97 C108.49 14.78, 130.85 15.55, 142.57 14.24 C154.28 12.94, 157.89 9.6, 162.98 7.14 C168.08 4.68, 171.12 0.34, 173.13 -0.53" stroke="#1971c2" stroke-width="2" fill="none"></path></g></g><mask></mask><g stroke-linecap="round"><g transform="translate(14.017105058488141 116.49070780339025) rotate(0 88.01887772059877 6.696644781011628)"><path d="M-1.09 0.49 C0.28 1.69, 4 5.53, 8.79 7.06 C13.59 8.58, 21.14 8.6, 27.66 9.65 C34.17 10.69, 37.13 12.03, 47.87 13.33 C58.61 14.63, 76.5 17.72, 92.09 17.45 C107.68 17.19, 129.28 14, 141.43 11.74 C153.59 9.48, 159.46 6.4, 165.03 3.89 C170.61 1.39, 173.32 -2.22, 174.9 -3.29 M0.53 -0.3 C1.66 0.54, 2.72 3.32, 7.65 5.12 C12.58 6.91, 23.44 9.01, 30.11 10.46 C36.78 11.91, 37.56 13.11, 47.67 13.82 C57.78 14.54, 75 15.26, 90.77 14.76 C106.54 14.26, 129.78 12.3, 142.26 10.81 C154.74 9.32, 159.84 8.3, 165.65 5.82 C171.46 3.34, 175.43 -2.44, 177.13 -4.07" stroke="#1971c2" stroke-width="2" fill="none"></path></g></g><mask></mask><g stroke-linecap="round"><g transform="translate(11.803591924303419 114.55010000793015) rotate(0 89.97777433192857 10.289460166230981)"><path d="M-0.38 0.35 C0.45 1.43, -0.22 4.79, 3.89 6.97 C8 9.16, 16.15 11.31, 24.26 13.44 C32.37 15.56, 41.17 18.39, 52.55 19.73 C63.93 21.07, 77.23 22.15, 92.53 21.48 C107.83 20.8, 131 18.23, 144.34 15.69 C157.68 13.15, 166.93 9.03, 172.6 6.25 C178.26 3.46, 176.98 0.29, 178.32 -1.01 M1.62 -0.52 C2.92 0.64, 1.98 5.56, 6.16 8 C10.34 10.45, 18.91 12.52, 26.7 14.14 C34.5 15.77, 41.71 16.44, 52.95 17.75 C64.19 19.05, 78.67 21.95, 94.14 21.98 C109.6 22.01, 132.61 20.23, 145.73 17.92 C158.85 15.61, 167.07 11.34, 172.84 8.12 C178.61 4.9, 179.22 -0.11, 180.34 -1.4" stroke="#343a40" stroke-width="2" fill="none"></path></g></g><mask></mask><g stroke-linecap="round" transform="translate(10.595467047807688 33.086509024267684) rotate(0 89.0782728397653 18.01541051847903)"><path d="M99.75 0.25 C112.66 0.17, 127.83 1.33, 139.37 2.81 C150.91 4.3, 162.41 6.68, 168.97 9.15 C175.53 11.62, 178.86 14.75, 178.74 17.65 C178.62 20.54, 174.72 23.91, 168.26 26.52 C161.8 29.13, 151.4 31.68, 139.97 33.3 C128.55 34.91, 113.34 35.83, 99.7 36.2 C86.05 36.58, 71.11 36.44, 58.1 35.54 C45.09 34.64, 30.77 33.12, 21.62 30.82 C12.48 28.52, 6.23 24.73, 3.23 21.73 C0.24 18.74, 0.31 15.44, 3.63 12.86 C6.95 10.29, 14.29 8.41, 23.17 6.3 C32.05 4.19, 41.82 1.26, 56.9 0.19 C71.99 -0.88, 102.38 -0.54, 113.69 -0.14 C124.99 0.26, 125.18 2.05, 124.71 2.6 M90.42 1.43 C103.08 1.1, 118.02 0.85, 130.27 2.14 C142.52 3.43, 155.78 6.59, 163.92 9.16 C172.05 11.73, 177.69 15.13, 179.1 17.54 C180.52 19.95, 177.51 21.04, 172.4 23.62 C167.3 26.2, 159 31.03, 148.45 32.99 C137.91 34.95, 122.92 34.79, 109.16 35.4 C95.4 36.01, 79.09 37.51, 65.9 36.66 C52.71 35.81, 39.98 32.56, 30.01 30.31 C20.05 28.06, 11.01 25.62, 6.09 23.15 C1.17 20.68, -1.1 17.97, 0.47 15.5 C2.05 13.02, 7.63 10.69, 15.55 8.32 C23.46 5.95, 35.39 2.7, 47.97 1.29 C60.56 -0.12, 83.94 0.14, 91.04 -0.14 C98.14 -0.42, 90.56 -0.85, 90.57 -0.37" stroke="none" stroke-width="0" fill="#fff"></path><path d="M58.7 0.22 C70.7 -1, 86.87 -0.29, 100.31 0.1 C113.74 0.5, 128.14 1.15, 139.32 2.59 C150.5 4.03, 160.94 5.98, 167.4 8.72 C173.86 11.46, 178.1 16, 178.08 19.04 C178.06 22.07, 173.82 24.75, 167.27 26.92 C160.72 29.08, 150.19 30.56, 138.77 32.03 C127.35 33.51, 112.34 35.35, 98.74 35.78 C85.14 36.21, 69.83 35.7, 57.19 34.6 C44.55 33.5, 32.06 31.39, 22.9 29.18 C13.73 26.97, 5.65 24.08, 2.18 21.36 C-1.29 18.64, -1.27 15.43, 2.08 12.86 C5.44 10.3, 12.48 7.81, 22.31 5.96 C32.14 4.1, 53.96 2.61, 61.05 1.73 C68.14 0.86, 64.37 0.64, 64.83 0.72 M70.12 -0.23 C82.5 -0.67, 99.05 0.88, 112.25 1.81 C125.45 2.73, 139.09 3.64, 149.32 5.33 C159.56 7.02, 169.09 9.26, 173.65 11.93 C178.2 14.59, 178.83 18.77, 176.67 21.33 C174.52 23.89, 168.72 25.09, 160.71 27.3 C152.7 29.5, 141.33 32.99, 128.6 34.56 C115.87 36.13, 98.3 36.97, 84.35 36.74 C70.41 36.5, 56.9 34.71, 44.93 33.14 C32.95 31.58, 19.85 29.61, 12.52 27.35 C5.2 25.09, 2.13 22.33, 0.96 19.59 C-0.21 16.86, 0.05 13.47, 5.51 10.93 C10.98 8.39, 22.78 6.2, 33.74 4.33 C44.71 2.47, 64.83 0.26, 71.31 -0.26 C77.78 -0.78, 72.2 0.63, 72.58 1.21" stroke="#343a40" stroke-width="2" fill="none"></path></g><g stroke-linecap="round"><g transform="translate(14.680613805361645 182.57386388529721) rotate(0 87.83582709968789 8.640801404902732)"><path d="M-0.86 -1.16 C0.86 0.3, 4.76 5.81, 9.47 7.81 C14.17 9.81, 20.85 9.83, 27.39 10.82 C33.92 11.82, 38.03 12.48, 48.69 13.75 C59.35 15.02, 75.46 18.23, 91.35 18.43 C107.23 18.63, 131.63 16.98, 143.98 14.96 C156.33 12.93, 160.03 8.61, 165.46 6.29 C170.88 3.98, 174.95 1.96, 176.53 1.07 M0.89 0.84 C2.55 2.08, 3.87 4.36, 8.67 6.26 C13.47 8.16, 22.99 10.89, 29.7 12.25 C36.4 13.62, 38.34 13.44, 48.91 14.46 C59.48 15.48, 77.16 18.48, 93.13 18.38 C109.11 18.28, 133.12 15.55, 144.77 13.87 C156.43 12.18, 157.87 10.52, 163.04 8.27 C168.22 6.01, 173.58 1.24, 175.81 0.32" stroke="#1971c2" stroke-width="2" fill="none"></path></g></g><mask></mask><g stroke-linecap="round"><g transform="translate(14.374558105468168 189.1469628020858) rotate(0 87.71308149698541 8.183022628471633)"><path d="M0.29 1.1 C2.13 2.48, 5.19 5.62, 10.2 7.14 C15.22 8.66, 23.7 9.06, 30.38 10.19 C37.06 11.32, 40.18 12.67, 50.31 13.91 C60.44 15.15, 76.08 17.75, 91.15 17.63 C106.22 17.5, 128.66 14.99, 140.75 13.15 C152.84 11.31, 158.1 8.91, 163.7 6.58 C169.3 4.26, 172.43 0.28, 174.34 -0.79 M-1.02 0.63 C1.26 1.72, 7.23 3.38, 12.33 5.13 C17.43 6.88, 23.29 9.54, 29.59 11.12 C35.9 12.69, 39.64 13.43, 50.16 14.57 C60.68 15.71, 77.9 17.82, 92.72 17.97 C107.55 18.11, 127.12 17.01, 139.11 15.43 C151.09 13.85, 158.42 11.33, 164.64 8.49 C170.86 5.65, 174.37 0.01, 176.44 -1.61" stroke="#4dabf7" stroke-width="2" fill="none"></path></g></g><mask></mask><g stroke-linecap="round"><g transform="translate(14.026701461944413 182.1042460862186) rotate(0 89.11351864123765 10.287628472369477)"><path d="M-1.11 0.21 C-0.38 1.23, 0.44 4.94, 4.68 7.2 C8.93 9.45, 16.63 11.87, 24.36 13.76 C32.09 15.65, 39.16 17.2, 51.09 18.54 C63.01 19.87, 80.28 22.23, 95.92 21.75 C111.57 21.27, 132.21 18.25, 144.95 15.65 C157.69 13.06, 166.61 8.94, 172.34 6.18 C178.08 3.42, 178.19 0.12, 179.34 -0.92 M0.51 -0.72 C1.05 0.95, -0.68 5.79, 3.71 8.34 C8.1 10.9, 19.02 12.76, 26.85 14.63 C34.69 16.51, 39.35 18.4, 50.72 19.59 C62.08 20.79, 79.67 22.09, 95.05 21.8 C110.43 21.51, 130.1 20.16, 143 17.87 C155.9 15.57, 166.58 11.2, 172.46 8.01 C178.33 4.82, 176.8 0.24, 178.23 -1.27" stroke="#343a40" stroke-width="2" fill="none"></path></g></g><mask></mask><g stroke-linecap="round"><g transform="translate(12.14193627318582 290.69396302699977) rotate(0 89.17708299897447 97.08413647619176)" fill-rule="evenodd"><path d="M-0.87 1.4 C-0.25 29.83, 1.48 140.75, 1.58 172.61 C1.67 204.47, -1.49 187.18, -0.31 192.56 C0.87 197.95, 1.67 201.95, 8.65 204.93 C15.64 207.9, 27.03 208.94, 41.61 210.41 C56.19 211.88, 78.63 214.09, 96.14 213.72 C113.65 213.36, 133.78 210.22, 146.67 208.24 C159.56 206.25, 167.92 204.24, 173.47 201.82 C179.02 199.41, 179.27 197.46, 179.98 193.75 C180.7 190.04, 177.65 209.71, 177.77 179.56 C177.89 149.41, 180.44 42.49, 180.72 12.83 C181 -16.83, 182.13 5.31, 179.45 1.59 C176.77 -2.12, 170.74 -6.58, 164.62 -9.47 C158.5 -12.36, 155.96 -14.55, 142.75 -15.74 C129.54 -16.93, 102.15 -16.82, 85.37 -16.61 C68.58 -16.4, 54.64 -15.91, 42.05 -14.48 C29.47 -13.05, 17.15 -10.55, 9.85 -8 C2.54 -5.46, -0.16 -0.78, -1.78 0.8 C-3.4 2.39, 0.09 1.63, 0.12 1.51" stroke="none" stroke-width="0" fill="#228be6" fill-rule="evenodd"></path><path d="M0.79 -0.93 C1.04 28.21, 1.88 143.25, 1.56 175.74 C1.25 208.24, -2.42 189.52, -1.09 194.06 C0.24 198.6, 2.38 200.38, 9.55 202.98 C16.72 205.58, 27.55 208.05, 41.92 209.65 C56.29 211.24, 78.39 212.55, 95.76 212.56 C113.13 212.58, 132.78 211.63, 146.15 209.72 C159.52 207.82, 170.71 203.78, 175.98 201.11 C181.25 198.44, 177.36 197.51, 177.77 193.71 C178.19 189.9, 178.26 208.16, 178.46 178.28 C178.66 148.4, 178.94 44.35, 178.97 14.42 C179 -15.51, 180.88 2.79, 178.63 -1.32 C176.39 -5.43, 171.44 -8.19, 165.48 -10.23 C159.53 -12.27, 155.86 -12.28, 142.91 -13.57 C129.95 -14.87, 104.53 -17.54, 87.75 -18.01 C70.97 -18.48, 55.75 -18.29, 42.23 -16.42 C28.71 -14.56, 13.55 -9.48, 6.63 -6.82 C-0.3 -4.17, 1.91 -1.77, 0.68 -0.52 C-0.54 0.74, -0.75 0.78, -0.73 0.72 M-0.26 1.2 C-0.09 29.92, 0.88 141.76, 1.12 174.06 C1.37 206.35, -0.26 190.01, 1.21 194.97 C2.69 199.94, 3.37 201.44, 9.96 203.85 C16.56 206.27, 26.22 208.24, 40.77 209.48 C55.33 210.72, 79.74 211.46, 97.32 211.31 C114.89 211.16, 133.16 210.29, 146.2 208.57 C159.24 206.85, 170.06 203.67, 175.58 200.99 C181.09 198.31, 178.75 196.27, 179.29 192.49 C179.84 188.71, 178.82 207.85, 178.84 178.31 C178.85 148.77, 179.59 45.33, 179.39 15.27 C179.19 -14.79, 180 1.79, 177.65 -2.07 C175.3 -5.93, 171.11 -6, 165.28 -7.89 C159.45 -9.77, 155.43 -11.66, 142.65 -13.4 C129.87 -15.14, 105.17 -18, 88.58 -18.34 C71.99 -18.67, 56.46 -17.52, 43.11 -15.41 C29.76 -13.31, 15.7 -8.24, 8.48 -5.73 C1.26 -3.22, 1.03 -1.54, -0.19 -0.36 C-1.41 0.82, 0.84 1.2, 1.16 1.36" stroke="#343a40" stroke-width="2" fill="none"></path></g></g><mask></mask><g stroke-linecap="round"><g transform="translate(13.752542654564422 362.06462112762335) rotate(0 88.84997284329916 5.652967275167782)"><path d="M0.97 0.83 C2.36 1.95, 4.33 4.22, 9.15 5.74 C13.97 7.26, 22.85 9.01, 29.9 9.96 C36.96 10.92, 41.07 10.79, 51.49 11.49 C61.9 12.19, 77.31 14.39, 92.38 14.17 C107.46 13.95, 129.44 11.74, 141.93 10.19 C154.43 8.63, 161.76 7.03, 167.36 4.85 C172.96 2.66, 174.13 -1.73, 175.51 -2.92 M0.02 0.23 C1.7 1.56, 6.39 5.08, 11.27 6.88 C16.15 8.68, 22.51 10.19, 29.3 11.05 C36.1 11.91, 41.77 11.49, 52.06 12.04 C62.35 12.59, 75.94 14.79, 91.05 14.34 C106.17 13.89, 130.43 11.11, 142.75 9.34 C155.07 7.57, 159.15 5.79, 164.97 3.72 C170.79 1.64, 175.63 -1.94, 177.68 -3.1" stroke="#4dabf7" stroke-width="2" fill="none"></path></g></g><mask></mask><g stroke-linecap="round"><g transform="translate(13.30519644951164 298.2711845524815) rotate(0 88.0747854752143 5.522991285459852)"><path d="M-1.12 -0.76 C0.38 -0.03, 4.84 3.68, 9.96 5.23 C15.07 6.77, 22.82 7.5, 29.58 8.51 C36.34 9.52, 40.32 10.47, 50.51 11.3 C60.69 12.13, 75.16 13.8, 90.68 13.49 C106.2 13.17, 131.29 10.99, 143.62 9.39 C155.95 7.8, 159.41 6, 164.65 3.91 C169.88 1.81, 173.14 -1.78, 175.03 -3.15 M0.49 1.45 C1.78 2.27, 4.4 5.23, 9.17 6.53 C13.95 7.84, 22.19 8.33, 29.14 9.27 C36.09 10.21, 40.37 11.39, 50.89 12.19 C61.42 12.99, 77.09 14.67, 92.27 14.07 C107.46 13.47, 129.91 10.46, 142 8.57 C154.09 6.68, 158.95 4.65, 164.82 2.72 C170.7 0.79, 175.68 -1.59, 177.27 -3.01" stroke="#4dabf7" stroke-width="2" fill="none"></path></g></g><mask></mask><g stroke-linecap="round"><g transform="translate(13.376299898238358 485.2729444048057) rotate(0 86.71728828382925 8.084010902691887)"><path d="M0.32 -0.44 C2.31 0.71, 6.21 3.9, 10.84 6.17 C15.47 8.45, 21.98 11.54, 28.11 13.2 C34.24 14.87, 36.79 15.57, 47.61 16.17 C58.42 16.76, 77.01 17.14, 92.99 16.77 C108.97 16.4, 131.77 15.21, 143.48 13.92 C155.2 12.64, 158.13 11.28, 163.29 9.08 C168.44 6.87, 172.45 2.15, 174.41 0.69 M-0.98 -1.72 C1.01 -0.39, 5.48 4.48, 10.22 7.15 C14.96 9.83, 21.31 12.59, 27.49 14.3 C33.66 16.02, 36.49 16.95, 47.26 17.47 C58.04 17.98, 75.95 18.11, 92.15 17.38 C108.34 16.64, 132.53 14.57, 144.43 13.05 C156.32 11.52, 158.69 10.35, 163.54 8.21 C168.38 6.07, 171.77 1.21, 173.48 0.22" stroke="#1971c2" stroke-width="2" fill="none"></path></g></g><mask></mask><g stroke-linecap="round"><g transform="translate(13.421638010679999 355.03161188835395) rotate(0 87.98143301210234 6.930443277452241)"><path d="M0.62 -1.06 C2.14 0.06, 4.99 4.29, 9.44 6.3 C13.9 8.31, 20.63 9.55, 27.37 10.98 C34.12 12.42, 39.33 13.96, 49.92 14.9 C60.51 15.85, 75.6 17.08, 90.91 16.67 C106.22 16.26, 129.4 14.49, 141.8 12.44 C154.19 10.39, 159.49 6.97, 165.26 4.38 C171.04 1.8, 174.88 -1.77, 176.48 -3.07 M-0.51 1 C0.85 2.33, 3.61 6.32, 8.64 7.62 C13.67 8.93, 23.26 7.4, 29.68 8.83 C36.09 10.27, 36.64 14.83, 47.14 16.23 C57.63 17.62, 76.68 17.94, 92.63 17.22 C108.58 16.5, 130.59 14.27, 142.82 11.88 C155.05 9.49, 160.5 5.51, 166.01 2.9 C171.52 0.3, 174.15 -2.98, 175.88 -3.73" stroke="#1971c2" stroke-width="2" fill="none"></path></g></g><mask></mask><g stroke-linecap="round"><g transform="translate(11.208124876495276 353.09100409289374) rotate(0 89.91180235895376 10.285404110407683)"><path d="M0.27 -0.41 C0.77 1.15, -0.74 5.74, 3.6 8.31 C7.95 10.88, 18.35 13.24, 26.31 15.01 C34.28 16.78, 40.27 17.75, 51.37 18.94 C62.47 20.14, 77.36 22.64, 92.89 22.18 C108.43 21.72, 131.03 18.8, 144.57 16.18 C158.12 13.56, 168.49 9.48, 174.17 6.47 C179.86 3.46, 177.64 -0.74, 178.67 -1.85 M-1.05 -1.67 C-0.25 -0.39, 1.19 3.95, 5.73 6.38 C10.26 8.81, 18.6 10.58, 26.17 12.89 C33.75 15.19, 39.73 18.52, 51.15 20.21 C62.57 21.9, 78.87 23.92, 94.69 23.05 C110.51 22.18, 133.27 17.44, 146.08 15 C158.9 12.57, 165.79 11.41, 171.59 8.46 C177.38 5.51, 179.62 -1.07, 180.87 -2.69" stroke="#343a40" stroke-width="2" fill="none"></path></g></g><mask></mask><g stroke-linecap="round" transform="translate(10 271.62741310923127) rotate(0 89.0782728397653 18.01541051847903)"><path d="M51.96 1.81 C63.45 0.45, 80.31 -0.35, 94.13 -0.36 C107.94 -0.38, 123.07 0.32, 134.85 1.7 C146.63 3.08, 157.57 5.25, 164.82 7.91 C172.07 10.57, 177.49 14.79, 178.34 17.65 C179.2 20.52, 175.67 22.6, 169.95 25.09 C164.23 27.58, 154.77 30.75, 144.03 32.62 C133.29 34.48, 118.94 35.86, 105.49 36.29 C92.04 36.72, 76.64 36.13, 63.33 35.19 C50.03 34.24, 35.47 32.63, 25.65 30.6 C15.82 28.57, 8.25 25.63, 4.37 23 C0.49 20.37, -0.12 17.48, 2.36 14.82 C4.83 12.16, 8.53 9.39, 19.23 7.05 C29.93 4.71, 56.16 1.74, 66.57 0.78 C76.99 -0.19, 81.49 1.03, 81.71 1.28 M49.78 1.19 C61.34 -0.01, 79.51 1, 93.69 1.41 C107.88 1.83, 123.36 2.44, 134.89 3.69 C146.43 4.94, 155.81 6.87, 162.91 8.92 C170.02 10.97, 176.2 13.54, 177.52 16 C178.84 18.46, 176.34 20.94, 170.86 23.67 C165.38 26.41, 155.06 30.62, 144.64 32.41 C134.22 34.19, 121.73 33.72, 108.32 34.37 C94.92 35.02, 77.61 36.84, 64.24 36.31 C50.87 35.78, 38.09 33.28, 28.08 31.19 C18.08 29.1, 8.86 26.67, 4.19 23.76 C-0.47 20.85, -2.18 16.7, 0.08 13.74 C2.35 10.78, 9.1 7.86, 17.77 6 C26.43 4.14, 46.36 3.11, 52.07 2.58 C57.77 2.06, 51.33 2.55, 51.98 2.86" stroke="none" stroke-width="0" fill="#fff"></path><path d="M131.79 1.55 C144.01 2.73, 156.22 5.6, 163.82 8.14 C171.43 10.67, 176.17 14.13, 177.43 16.76 C178.7 19.4, 176.58 21.34, 171.42 23.94 C166.26 26.54, 156.73 30.3, 146.46 32.37 C136.2 34.43, 123.06 35.88, 109.81 36.35 C96.56 36.82, 80.48 36.19, 66.97 35.21 C53.45 34.23, 38.9 32.2, 28.73 30.46 C18.56 28.73, 10.64 27.41, 5.93 24.83 C1.21 22.25, -1.4 17.75, 0.46 14.99 C2.31 12.23, 9.13 10.58, 17.06 8.26 C24.99 5.94, 35.69 2.52, 48.03 1.08 C60.37 -0.35, 76.14 -0.72, 91.11 -0.35 C106.07 0.01, 129.56 2.58, 137.82 3.26 C146.08 3.95, 141.74 3.63, 140.68 3.78 M116.35 1.3 C129.15 1.76, 142.46 2.63, 151.97 4.65 C161.49 6.67, 169.19 10.6, 173.43 13.42 C177.68 16.24, 179.99 18.7, 177.43 21.56 C174.87 24.41, 166.57 28.57, 158.07 30.53 C149.58 32.5, 138.76 32.2, 126.46 33.35 C114.17 34.49, 98.45 37.41, 84.31 37.4 C70.17 37.39, 53.5 35.12, 41.63 33.28 C29.75 31.44, 20.13 28.55, 13.07 26.36 C6 24.17, 0.14 22.63, -0.75 20.15 C-1.64 17.66, 1.64 14.23, 7.73 11.45 C13.82 8.67, 25.01 5.24, 35.78 3.47 C46.56 1.7, 59 1.12, 72.38 0.84 C85.75 0.55, 109.02 1.7, 116.03 1.76 C123.04 1.83, 114.96 1.01, 114.42 1.22" stroke="#343a40" stroke-width="2" fill="none"></path></g><g stroke-linecap="round"><g transform="translate(14.085146757553957 421.1147679702609) rotate(0 88.63406272826012 9.163659587715586)"><path d="M1.19 0.41 C2.76 1.52, 3.86 5.17, 8.29 7.02 C12.71 8.87, 20.98 10.32, 27.75 11.53 C34.52 12.73, 38.06 13.05, 48.92 14.24 C59.78 15.42, 77.02 18.67, 92.92 18.65 C108.83 18.63, 132.29 15.95, 144.33 14.11 C156.37 12.28, 159.73 9.6, 165.16 7.63 C170.59 5.66, 175.16 3.33, 176.91 2.28 M0.36 -0.42 C2.4 0.28, 5.55 3.38, 10.53 5.06 C15.51 6.74, 23.8 7.97, 30.25 9.67 C36.71 11.36, 38.99 13.7, 49.27 15.21 C59.54 16.72, 75.87 18.54, 91.88 18.72 C107.89 18.89, 133.53 18.25, 145.31 16.24 C157.09 14.23, 157.41 8.99, 162.59 6.64 C167.77 4.3, 173.89 2.71, 176.38 2.17" stroke="#1971c2" stroke-width="2" fill="none"></path></g></g><mask></mask><g stroke-linecap="round"><g transform="translate(13.77909105766048 427.6878668870494) rotate(0 87.08986683482658 7.9249426899958735)"><path d="M-0.89 0.31 C0.67 1.55, 5.32 6.11, 10.57 7.84 C15.82 9.57, 23.73 9.63, 30.61 10.68 C37.5 11.72, 41.74 13.11, 51.89 14.13 C62.04 15.15, 76.74 16.72, 91.5 16.78 C106.26 16.84, 128.36 15.98, 140.45 14.48 C152.55 12.99, 158.31 10.27, 164.08 7.8 C169.85 5.33, 173.37 0.82, 175.07 -0.35 M0.84 -0.57 C2.69 0.3, 8.04 4.13, 12.89 6.2 C17.74 8.27, 23.33 10.41, 29.95 11.86 C36.56 13.31, 42.01 14.11, 52.57 14.91 C63.12 15.71, 78.91 16.86, 93.26 16.68 C107.61 16.5, 127.27 15.47, 138.65 13.81 C150.03 12.14, 155.68 9.14, 161.55 6.69 C167.43 4.23, 171.53 0.22, 173.9 -0.94" stroke="#4dabf7" stroke-width="2" fill="none"></path></g></g><mask></mask><g stroke-linecap="round"><g transform="translate(13.43123441413627 420.6451501711823) rotate(0 89.89046838557852 11.806100355324816)"><path d="M-0.75 0.92 C0.22 2.14, 0.47 5.51, 4.92 7.68 C9.36 9.86, 18.19 12.31, 25.94 13.98 C33.69 15.65, 39.82 16.17, 51.44 17.69 C63.05 19.21, 79.97 23.22, 95.62 23.09 C111.27 22.95, 132.42 19.61, 145.33 16.87 C158.24 14.13, 167.55 9.48, 173.07 6.62 C178.59 3.77, 177.24 1.07, 178.44 -0.25 M1.06 0.35 C1.97 1.74, -0.02 6.65, 4.07 9.09 C8.16 11.53, 17.74 13.44, 25.6 14.97 C33.47 16.51, 39.75 16.83, 51.25 18.3 C62.75 19.78, 79.21 24.21, 94.6 23.84 C109.98 23.47, 130.41 18.59, 143.58 16.06 C156.74 13.54, 167.41 11.41, 173.57 8.69 C179.72 5.97, 179.62 1.08, 180.53 -0.24" stroke="#343a40" stroke-width="2" fill="none"></path></g></g><mask></mask><g stroke-linecap="round"><g transform="translate(379.0553317013505 184.47652440457455) rotate(0 89.99422497392857 96.81277979765844)" fill-rule="evenodd"><path d="M-1.24 0.27 C-1.02 29.13, 1.53 141.16, 2.12 173.88 C2.72 206.61, 0.76 191.35, 2.32 196.6 C3.88 201.84, 5.25 203.32, 11.48 205.35 C17.7 207.39, 25.57 207.25, 39.68 208.82 C53.79 210.39, 78.19 214.59, 96.12 214.76 C114.05 214.93, 134.09 212.27, 147.28 209.82 C160.47 207.36, 169.74 202.89, 175.27 200.02 C180.8 197.16, 179.48 196.55, 180.47 192.61 C181.45 188.67, 181.51 206.34, 181.16 176.38 C180.81 146.43, 178.7 42.52, 178.39 12.87 C178.08 -16.78, 181.27 2.17, 179.31 -1.51 C177.34 -5.2, 172.53 -7.42, 166.6 -9.24 C160.67 -11.06, 156.68 -11.1, 143.74 -12.42 C130.8 -13.75, 105.61 -16.26, 88.97 -17.19 C72.34 -18.12, 57.52 -19.93, 43.94 -17.98 C30.37 -16.02, 14.71 -8.77, 7.51 -5.49 C0.32 -2.2, 2.21 0.62, 0.78 1.74 C-0.64 2.86, -1.14 1.19, -1.04 1.23" stroke="none" stroke-width="0" fill="#228be6" fill-rule="evenodd"></path><path d="M0.54 0.88 C0.64 30.13, 0.78 143.56, 0.86 175.88 C0.93 208.21, -0.35 190.24, 1.01 194.81 C2.38 199.38, 2.3 200.79, 9.04 203.33 C15.79 205.87, 26.88 208.51, 41.47 210.06 C56.05 211.61, 78.81 212.55, 96.54 212.63 C114.27 212.7, 134.86 212.55, 147.83 210.51 C160.79 208.47, 169.12 203.29, 174.33 200.4 C179.54 197.51, 178.08 197.2, 179.07 193.18 C180.06 189.17, 180.16 205.9, 180.27 176.32 C180.39 146.73, 180.18 45.12, 179.77 15.69 C179.36 -13.73, 180.14 3.86, 177.8 -0.23 C175.45 -4.32, 171.49 -6.43, 165.68 -8.85 C159.86 -11.26, 155.98 -13.16, 142.91 -14.72 C129.83 -16.28, 104.09 -18.08, 87.23 -18.2 C70.37 -18.33, 55.01 -17.21, 41.75 -15.49 C28.49 -13.77, 14.49 -10.4, 7.67 -7.88 C0.84 -5.37, 2.2 -1.62, 0.82 -0.39 C-0.57 0.84, -0.54 -0.61, -0.64 -0.49 M-0.64 0.29 C-0.69 29.19, -0.19 141.63, 0.05 174.27 C0.28 206.91, -0.76 191.1, 0.77 196.12 C2.29 201.14, 2.64 202.05, 9.19 204.38 C15.74 206.71, 25.81 208.94, 40.08 210.11 C54.36 211.28, 76.73 211.46, 94.84 211.4 C112.95 211.35, 135.72 211.69, 148.76 209.77 C161.8 207.86, 168.25 202.92, 173.06 199.91 C177.87 196.89, 176.8 195.17, 177.61 191.69 C178.42 188.2, 177.44 208.66, 177.94 178.97 C178.44 149.28, 180.87 43.45, 180.61 13.55 C180.35 -16.35, 178.88 3.42, 176.37 -0.41 C173.86 -4.24, 171.2 -6.98, 165.57 -9.44 C159.95 -11.89, 155.61 -13.61, 142.65 -15.15 C129.68 -16.68, 104.48 -18.22, 87.77 -18.63 C71.06 -19.05, 55.94 -19.53, 42.38 -17.65 C28.82 -15.77, 13.47 -10.25, 6.41 -7.34 C-0.65 -4.43, 0.86 -1.31, 0.01 -0.17 C-0.84 0.97, 1.16 -0.31, 1.3 -0.49" stroke="#343a40" stroke-width="2" fill="none"></path></g></g><mask></mask><g stroke-linecap="round"><g transform="translate(380.6659380827291 255.84718250519813) rotate(0 87.87533099080406 5.293983200594482)"><path d="M0.26 0.97 C2.05 1.91, 6.4 4.94, 11.25 6.5 C16.11 8.05, 22.77 9.41, 29.4 10.31 C36.03 11.21, 40.41 11.25, 51.03 11.91 C61.66 12.56, 77.73 14.39, 93.16 14.23 C108.59 14.08, 131.52 12.66, 143.61 10.97 C155.7 9.29, 160.18 6.54, 165.71 4.14 C171.24 1.73, 174.85 -2.04, 176.81 -3.45 M-1.06 0.44 C0.61 1.5, 5.89 6.17, 10.82 8.03 C15.75 9.88, 21.77 10.8, 28.53 11.58 C35.29 12.35, 40.75 12.19, 51.37 12.67 C61.99 13.15, 77.19 14.79, 92.24 14.44 C107.29 14.08, 129.34 12.51, 141.65 10.54 C153.97 8.57, 160.39 5.04, 166.11 2.64 C171.84 0.23, 174.29 -3.04, 175.99 -3.9" stroke="#4dabf7" stroke-width="2" fill="none"></path></g></g><mask></mask><g stroke-linecap="round"><g transform="translate(380.2185918776754 192.05374593005627) rotate(0 88.44233407192428 4.6042388774075675)"><path d="M0.99 -0.01 C2.52 0.76, 4.76 4.08, 9.45 5.57 C14.14 7.06, 22.16 7.96, 29.13 8.92 C36.1 9.89, 40.75 10.47, 51.28 11.37 C61.82 12.26, 77.24 14.72, 92.35 14.27 C107.47 13.83, 129.71 10.5, 141.97 8.68 C154.24 6.87, 160.13 5.68, 165.94 3.38 C171.76 1.08, 175.04 -4.05, 176.84 -5.12 M0.05 -1.06 C1.38 -0.19, 3.66 5.23, 8.4 7.06 C13.13 8.89, 21.78 9.03, 28.45 9.9 C35.12 10.77, 37.97 12, 48.42 12.29 C58.87 12.57, 75.39 12.41, 91.17 11.61 C106.96 10.81, 130.54 9.1, 143.14 7.49 C155.75 5.87, 161.26 3.56, 166.8 1.92 C172.34 0.28, 174.9 -1.38, 176.37 -2.35" stroke="#4dabf7" stroke-width="2" fill="none"></path></g></g><mask></mask><g stroke-linecap="round"><g transform="translate(380.2896953264021 379.0555057823806) rotate(0 86.72979267073106 7.951880131325652)"><path d="M-0.19 -0.1 C1.38 1, 5.54 4.36, 10.39 6.59 C15.24 8.82, 22.41 11.54, 28.89 13.27 C35.37 14.99, 38.88 16.49, 49.29 16.96 C59.69 17.42, 75.43 16.65, 91.34 16.06 C107.26 15.47, 132.48 14.89, 144.78 13.4 C157.07 11.91, 160.03 9.02, 165.1 7.11 C170.17 5.21, 173.69 2.91, 175.21 1.96 M-1.75 -1.2 C-0.41 0.05, 4.46 5.19, 9.53 7.79 C14.6 10.39, 21.96 13.2, 28.67 14.4 C35.39 15.6, 39.05 14.69, 49.82 15.01 C60.59 15.32, 77.81 16.76, 93.29 16.3 C108.78 15.84, 131.18 13.48, 142.74 12.24 C154.3 11.01, 157.31 10.56, 162.64 8.87 C167.97 7.19, 173.06 3.59, 174.7 2.16" stroke="#1971c2" stroke-width="2" fill="none"></path></g></g><mask></mask><g stroke-linecap="round"><g transform="translate(380.3350334388447 248.81417326592873) rotate(0 87.21762514314469 7.240012363351241)"><path d="M0.17 -0.65 C1.91 0.43, 5.41 4.29, 10.22 6.36 C15.04 8.43, 22.71 10.46, 29.05 11.77 C35.39 13.08, 37.75 13.47, 48.28 14.2 C58.8 14.93, 76.32 16.76, 92.21 16.14 C108.09 15.52, 131.3 12.22, 143.61 10.47 C155.92 8.73, 160.73 7.73, 166.07 5.65 C171.4 3.58, 174.14 -0.7, 175.64 -1.98 M-1.2 1.63 C0.49 2.89, 4.86 6.32, 9.82 7.72 C14.79 9.12, 22.17 8.8, 28.57 10.03 C34.98 11.27, 37.89 14.08, 48.28 15.15 C58.68 16.21, 75.34 16.85, 90.95 16.42 C106.55 15.98, 129.82 14.47, 141.92 12.54 C154.02 10.61, 158.12 7.28, 163.57 4.84 C169.01 2.41, 172.41 -0.74, 174.6 -2.08" stroke="#1971c2" stroke-width="2" fill="none"></path></g></g><mask></mask><g stroke-linecap="round"><g transform="translate(378.12152030465904 246.87356547046852) rotate(0 90.65184714349948 9.330230119656107)"><path d="M1.05 -0.35 C1.9 1.27, 1.35 6.65, 5.28 9.1 C9.22 11.54, 16.77 12.75, 24.67 14.3 C32.56 15.86, 40.99 17.43, 52.66 18.42 C64.34 19.4, 79.25 20.37, 94.71 20.21 C110.16 20.05, 132.27 19.56, 145.37 17.45 C158.48 15.34, 167.75 10.55, 173.34 7.56 C178.92 4.57, 177.7 1.02, 178.86 -0.47 M0.14 -1.58 C0.86 -0.2, 0.7 4.74, 4.63 7.58 C8.55 10.42, 15.58 13.5, 23.66 15.47 C31.74 17.44, 41.43 18.64, 53.12 19.41 C64.81 20.17, 78.71 20.46, 93.79 20.05 C108.88 19.64, 130.28 19.21, 143.64 16.94 C157.01 14.68, 167.71 9.38, 173.97 6.46 C180.22 3.54, 180.31 0.38, 181.17 -0.58" stroke="#343a40" stroke-width="2" fill="none"></path></g></g><mask></mask><g stroke-linecap="round" transform="translate(376.91339542816377 165.40997448680605) rotate(0 89.0782728397653 18.01541051847903)"><path d="M103.53 0.86 C116.71 1.02, 132.46 3.01, 143.46 4.56 C154.46 6.1, 163.63 7.67, 169.55 10.12 C175.47 12.57, 179.5 16.35, 178.98 19.24 C178.46 22.14, 173.68 25.08, 166.41 27.51 C159.14 29.94, 147.34 32.43, 135.38 33.83 C123.42 35.22, 108.28 35.61, 94.67 35.88 C81.06 36.14, 66.25 36.49, 53.72 35.42 C41.2 34.34, 28.25 31.83, 19.53 29.44 C10.82 27.05, 3.97 23.93, 1.43 21.08 C-1.11 18.23, 0.42 15.07, 4.29 12.33 C8.16 9.6, 15.07 6.47, 24.65 4.67 C34.22 2.88, 46.84 2.08, 61.75 1.56 C76.66 1.05, 103.86 1.71, 114.09 1.59 C124.33 1.47, 123.62 0.72, 123.17 0.84 M116.09 0.89 C129.12 1.1, 143.7 2.24, 153.13 4.4 C162.56 6.56, 168.91 10.95, 172.66 13.87 C176.42 16.79, 177.7 19.44, 175.67 21.91 C173.65 24.38, 169.03 26.54, 160.51 28.71 C151.99 30.88, 137.5 33.94, 124.55 34.93 C111.59 35.92, 96.27 35.12, 82.77 34.66 C69.26 34.2, 55.01 33.19, 43.5 32.16 C31.99 31.14, 20.73 30.55, 13.71 28.49 C6.69 26.44, 2.6 22.8, 1.38 19.83 C0.17 16.86, 1.07 13.49, 6.42 10.67 C11.77 7.85, 22.4 4.7, 33.48 2.9 C44.56 1.09, 59.22 0.09, 72.88 -0.15 C86.54 -0.4, 108.26 1.18, 115.47 1.43 C122.68 1.67, 116.63 1.24, 116.13 1.34" stroke="none" stroke-width="0" fill="#fff"></path><path d="M72.05 1.21 C84.57 0.53, 100.55 0.94, 113.94 1.59 C127.32 2.25, 142.29 3.41, 152.34 5.14 C162.4 6.87, 170.13 9.2, 174.27 11.98 C178.42 14.75, 179.7 18.91, 177.21 21.81 C174.72 24.7, 167.75 27.36, 159.31 29.34 C150.87 31.33, 138.98 32.63, 126.57 33.74 C114.17 34.85, 98.76 35.91, 84.89 36 C71.02 36.09, 55.33 35.79, 43.36 34.28 C31.38 32.77, 20.29 29.41, 13.03 26.94 C5.77 24.47, 0.67 22.11, -0.19 19.47 C-1.06 16.83, 2.17 13.77, 7.84 11.1 C13.5 8.42, 20.11 5.17, 33.8 3.43 C47.5 1.68, 77.85 0.92, 90.01 0.63 C102.17 0.34, 106.66 1.33, 106.75 1.68 M123.65 2.47 C136.42 3.48, 148.77 4.89, 157.58 6.78 C166.39 8.68, 173.43 11.24, 176.49 13.84 C179.55 16.44, 179.53 19.73, 175.96 22.39 C172.39 25.04, 164.76 27.85, 155.06 29.78 C145.37 31.7, 130.9 33.02, 117.8 33.95 C104.7 34.87, 90.05 35.56, 76.48 35.32 C62.92 35.09, 47.47 33.93, 36.38 32.54 C25.3 31.16, 15.81 29.4, 9.97 27.01 C4.14 24.62, 0.96 21.41, 1.37 18.22 C1.78 15.04, 5.86 10.26, 12.42 7.91 C18.97 5.56, 29.16 5.22, 40.7 4.1 C52.24 2.99, 68.01 1.53, 81.66 1.2 C95.31 0.87, 115.66 1.85, 122.62 2.13 C129.58 2.42, 123.74 2.62, 123.43 2.93" stroke="#343a40" stroke-width="2" fill="none"></path></g><g stroke-linecap="round"><g transform="translate(380.9985421857177 314.8973293478357) rotate(0 87.9627054566215 9.443747574917609)"><path d="M-0.46 -0.29 C1.05 0.59, 4.58 4.85, 9.58 6.5 C14.58 8.14, 22.87 8.06, 29.56 9.56 C36.25 11.06, 39.3 13.81, 49.72 15.51 C60.14 17.21, 76.28 19.74, 92.08 19.74 C107.88 19.74, 132.34 17.7, 144.52 15.5 C156.7 13.29, 159.85 8.72, 165.16 6.48 C170.47 4.25, 174.71 2.78, 176.38 2.09 M1.5 -1.5 C2.84 0.09, 4.2 5.95, 8.85 7.92 C13.49 9.89, 22.41 9.4, 29.36 10.33 C36.3 11.26, 40.28 11.81, 50.49 13.49 C60.69 15.16, 74.75 20.18, 90.6 20.38 C106.45 20.58, 133.61 16.66, 145.6 14.69 C157.6 12.72, 157.59 10.69, 162.58 8.56 C167.58 6.42, 173.21 3.11, 175.57 1.88" stroke="#1971c2" stroke-width="2" fill="none"></path></g></g><mask></mask><g stroke-linecap="round"><g transform="translate(380.69248648582425 321.47042826462416) rotate(0 87.99123529794974 8.805905000105838)"><path d="M0.4 -0.22 C2.54 0.81, 7.21 3.85, 12.38 5.88 C17.55 7.9, 24.97 10.39, 31.41 11.95 C37.86 13.51, 41 14.18, 51.05 15.22 C61.1 16.25, 76.8 18.48, 91.69 18.17 C106.59 17.85, 128.47 15.1, 140.45 13.34 C152.42 11.58, 157.86 9.73, 163.55 7.61 C169.24 5.48, 172.62 1.9, 174.59 0.59 M-0.84 -1.37 C1.27 -0.21, 6.66 4.94, 11.99 6.86 C17.32 8.78, 24.62 8.52, 31.17 10.14 C37.72 11.76, 40.89 15.13, 51.29 16.57 C61.68 18.01, 78.99 19.54, 93.55 18.79 C108.11 18.04, 126.83 14.13, 138.64 12.06 C150.45 10, 158.05 8.32, 164.41 6.39 C170.77 4.46, 175.28 1.26, 176.82 0.49" stroke="#4dabf7" stroke-width="2" fill="none"></path></g></g><mask></mask><g stroke-linecap="round"><g transform="translate(380.34462984230004 314.4277115487571) rotate(0 89.8249189903454 10.258081585275363)"><path d="M1.07 -1.05 C1.95 0.48, 1.71 6.27, 5.72 8.96 C9.72 11.64, 17.45 13.38, 25.1 15.07 C32.75 16.75, 39.88 17.93, 51.63 19.08 C63.38 20.22, 80.09 22.34, 95.62 21.94 C111.15 21.54, 131.97 19.07, 144.8 16.68 C157.63 14.28, 166.81 10.55, 172.59 7.56 C178.37 4.56, 178.18 0.15, 179.48 -1.31 M0.17 1.01 C0.94 2.24, 1.26 5.38, 5.29 7.37 C9.31 9.36, 16.61 10.8, 24.32 12.97 C32.03 15.14, 39.84 18.89, 51.55 20.41 C63.26 21.93, 79.39 22.87, 94.59 22.09 C109.8 21.32, 129.73 18.37, 142.77 15.77 C155.81 13.16, 166.89 9.39, 172.84 6.46 C178.78 3.52, 177.39 -0.32, 178.45 -1.86" stroke="#343a40" stroke-width="2" fill="none"></path></g></g><mask></mask><g stroke-linecap="round"><g transform="translate(193.22541739703183 134.52102976736376) rotate(0 98.27385200996082 69.93842321066)"><path d="M-0.88 -0.14 C12.77 2.03, 62.02 -5.85, 81.01 12.12 C100.01 30.09, 93.68 86.34, 113.09 107.65 C132.49 128.97, 183.39 134.79, 197.42 140.02" stroke="#343a40" stroke-width="4.5" fill="none" stroke-dasharray="8 12"></path></g><g transform="translate(193.22541739703183 134.52102976736376) rotate(0 98.27385200996082 69.93842321066)"><path d="M172.55 142.52 C178.01 140.49, 185.14 140.95, 197.42 140.02" stroke="#343a40" stroke-width="4.5" fill="none"></path></g><g transform="translate(193.22541739703183 134.52102976736376) rotate(0 98.27385200996082 69.93842321066)"><path d="M176.76 125.95 C181.13 127.67, 187.3 131.91, 197.42 140.02" stroke="#343a40" stroke-width="4.5" fill="none"></path></g></g><mask></mask><g stroke-linecap="round"><g transform="translate(190.96044698343894 410.5453239958997) rotate(0 98.60785939719631 -69.49323666607773)"><path d="M0.63 0.8 C14.44 -1.08, 63.07 5.83, 82.02 -12.15 C100.97 -30.14, 95.21 -85.84, 114.31 -107.11 C133.4 -128.38, 182.86 -134.34, 196.59 -139.79" stroke="#343a40" stroke-width="4.5" fill="none" stroke-dasharray="8 12"></path></g><g transform="translate(190.96044698343894 410.5453239958997) rotate(0 98.60785939719631 -69.49323666607773)"><path d="M176.13 -125.42 C182.29 -128.8, 184.4 -130.73, 196.59 -139.79" stroke="#343a40" stroke-width="4.5" fill="none"></path></g><g transform="translate(190.96044698343894 410.5453239958997) rotate(0 98.60785939719631 -69.49323666607773)"><path d="M171.68 -141.94 C178.75 -141.53, 181.89 -139.65, 196.59 -139.79" stroke="#343a40" stroke-width="4.5" fill="none"></path></g></g><mask></mask><g stroke-linecap="round" transform="translate(153.71988815832947 10.362401859926194) rotate(0 32.20654691739992 32.20654691739992)"><path d="M39.4 0.85 C45.41 2.04, 52.92 7.6, 56.92 12.27 C60.93 16.95, 62.84 22.89, 63.43 28.9 C64.02 34.9, 63.54 42.73, 60.49 48.29 C57.44 53.85, 51.18 59.79, 45.13 62.27 C39.08 64.75, 30.36 64.86, 24.2 63.18 C18.03 61.51, 12.31 56.9, 8.14 52.23 C3.97 47.56, -0.28 41.33, -0.84 35.17 C-1.4 29.01, 1.34 20.78, 4.78 15.25 C8.21 9.72, 12.78 4.05, 19.75 1.97 C26.71 -0.11, 41.58 2.16, 46.57 2.76 C51.57 3.37, 49.92 5.08, 49.7 5.61 M16.28 3.73 C21.36 0.4, 29.33 -1.22, 35.52 -0.25 C41.71 0.72, 48.73 5.18, 53.44 9.54 C58.15 13.91, 62.56 19.82, 63.76 25.94 C64.97 32.06, 63.23 40.6, 60.67 46.25 C58.11 51.9, 54.08 56.79, 48.38 59.85 C42.68 62.92, 32.68 65.6, 26.46 64.66 C20.23 63.71, 15.5 58.68, 11.03 54.2 C6.55 49.72, 0.82 43.77, -0.4 37.75 C-1.63 31.73, 0.6 23.96, 3.67 18.08 C6.75 12.19, 15.97 4.8, 18.05 2.44 C20.13 0.08, 15.98 3.32, 16.16 3.89" stroke="none" stroke-width="0" fill="#ffec99"></path><path d="M21.03 2.53 C26.48 -0.12, 34.43 -1.53, 40.62 0.17 C46.81 1.87, 54.3 7.72, 58.17 12.73 C62.04 17.75, 63.82 24.15, 63.85 30.26 C63.89 36.37, 61.86 44.18, 58.39 49.38 C54.92 54.58, 48.95 59.03, 43.03 61.46 C37.12 63.88, 28.79 65.57, 22.9 63.91 C17.02 62.24, 11.38 56.31, 7.71 51.45 C4.04 46.59, 1.13 40.94, 0.88 34.73 C0.64 28.53, 2.64 19.77, 6.22 14.21 C9.8 8.64, 19.33 3.29, 22.34 1.35 C25.36 -0.58, 23.98 2.11, 24.3 2.59 M22.97 0.01 C28.81 -1.91, 37.92 -1.12, 44.14 1.27 C50.35 3.66, 56.93 8.71, 60.26 14.35 C63.6 19.99, 64.66 28.69, 64.14 35.12 C63.62 41.54, 61.14 48.37, 57.15 52.9 C53.16 57.44, 46.49 60.89, 40.18 62.34 C33.86 63.79, 25.06 63.99, 19.25 61.6 C13.44 59.22, 8.52 53.06, 5.32 48.05 C2.11 43.05, -0.38 37.61, 0 31.55 C0.38 25.49, 3.76 16.87, 7.61 11.69 C11.46 6.52, 20.26 2.26, 23.09 0.52 C25.93 -1.21, 24.16 0.75, 24.62 1.27" stroke="#343a40" stroke-width="4" fill="none"></path></g><g stroke-linecap="round"><g transform="translate(184.99097738086448 44.443684551313936) rotate(0 -0.9396061604663828 -16.195055898073008)"><path d="M0.17 0.1 C-0.06 -5.38, -1.53 -27.2, -1.89 -32.49 M-0.41 -0.33 C-0.61 -5.77, -1.77 -26.64, -2.05 -31.99" stroke="#343a40" stroke-width="2" fill="none"></path></g><g transform="translate(184.99097738086448 44.443684551313936) rotate(0 -0.9396061604663828 -16.195055898073008)"><path d="M4.26 -17.19 C3.08 -19.4, 1.09 -22.51, -2.05 -31.99 M4.26 -17.19 C1.61 -23.27, -0.56 -28.68, -2.05 -31.99" stroke="#343a40" stroke-width="2" fill="none"></path></g><g transform="translate(184.99097738086448 44.443684551313936) rotate(0 -0.9396061604663828 -16.195055898073008)"><path d="M-6.73 -16.6 C-5.7 -18.94, -5.48 -22.17, -2.05 -31.99 M-6.73 -16.6 C-5.16 -22.86, -3.11 -28.5, -2.05 -31.99" stroke="#343a40" stroke-width="2" fill="none"></path></g></g><mask></mask><g stroke-linecap="round"><g transform="translate(186.3825848741899 45.59802768360669) rotate(0 11.705108631922485 -7.583358151753998)"><path d="M-0.44 0 C3.47 -2.56, 19.74 -12.69, 23.85 -15.17 M0.33 -0.48 C4.14 -2.98, 19.45 -11.99, 23.42 -14.54" stroke="#343a40" stroke-width="2" fill="none"></path></g><g transform="translate(186.3825848741899 45.59802768360669) rotate(0 11.705108631922485 -7.583358151753998)"><path d="M14.65 -3.5 C17.84 -7.51, 20.85 -11.01, 23.42 -14.54 M14.65 -3.5 C17.67 -7.16, 20.44 -11.17, 23.42 -14.54" stroke="#343a40" stroke-width="2" fill="none"></path></g><g transform="translate(186.3825848741899 45.59802768360669) rotate(0 11.705108631922485 -7.583358151753998)"><path d="M9.61 -11.72 C14.65 -12.7, 19.5 -13.21, 23.42 -14.54 M9.61 -11.72 C14.29 -12.66, 18.73 -13.94, 23.42 -14.54" stroke="#343a40" stroke-width="2" fill="none"></path></g></g><mask></mask><g stroke-linecap="round"><g transform="translate(186.04864968531638 10) rotate(0 0.0069459676515180035 2.6944539734865316)"><path d="M0 0 C0.05 1.28, -0.02 2.71, 0 5.39 M0 0 C0.03 2.06, 0.02 4.05, 0 5.39" stroke="#343a40" stroke-width="2" fill="none"></path></g></g><mask></mask><g stroke-linecap="round"><g transform="translate(185.00674708597307 68.93684780446631) rotate(0 0.024362658852396635 2.6944539734865316)"><path d="M0 0 C0.14 1.05, 0 2.36, 0 5.39 M0 0 C0.05 1.55, -0.05 3.07, 0 5.39" stroke="#343a40" stroke-width="2" fill="none"></path></g></g><mask></mask><g stroke-linecap="round"><g transform="translate(159.20980480405115 41.36704690692727) rotate(0 -2.5731814171035694 0.02326434669913624)"><path d="M0 0 C-1.98 0.07, -4.2 0.13, -5.15 0 M0 0 C-1.88 -0.09, -3.84 0.07, -5.15 0" stroke="#343a40" stroke-width="2" fill="none"></path></g></g><mask></mask><g stroke-linecap="round"><g transform="translate(217.73130217589414 43.00646193183502) rotate(0 -2.4303381580707537 0.030586506274630665)"><path d="M0 0 C-0.93 0.07, -2.09 0.09, -4.86 0 M0 0 C-1.32 0, -2.53 0.04, -4.86 0" stroke="#343a40" stroke-width="2" fill="none"></path></g></g><mask></mask><g stroke-linecap="round"><g transform="translate(164.93593203256478 18.943608843595484) rotate(0 1.5028053598414317 1.5028053598414886)"><path d="M0 0 C1.04 1.02, 2.15 2.07, 3.01 3.01 M0 0 C0.92 1.01, 2.02 1.99, 3.01 3.01" stroke="#343a40" stroke-width="2" fill="none"></path></g></g><mask></mask><g stroke-linecap="round"><g transform="translate(208.82705506144703 20.119920348557116) rotate(0 -2.2338043713552906 2.233804371355234)"><path d="M0 0 C-1.29 1.58, -2.96 2.81, -4.47 4.47 M0 0 C-1.71 1.71, -3.33 3.37, -4.47 4.47" stroke="#343a40" stroke-width="2" fill="none"></path></g></g><mask></mask><g stroke-linecap="round"><g transform="translate(166.83875071634566 61.615575115822594) rotate(0 -1.7968832360818396 1.7968832360818965)"><path d="M0 0 C-1.2 1.39, -2.31 2.33, -3.59 3.59 M0 0 C-0.91 0.9, -1.79 1.75, -3.59 3.59" stroke="#343a40" stroke-width="2" fill="none"></path></g></g><mask></mask><g stroke-linecap="round"><g transform="translate(206.45475118694958 59.82273948202487) rotate(0 1.7743076897295396 1.7743076897295396)"><path d="M0 0 C1.05 0.75, 1.75 1.87, 3.55 3.55 M0 0 C0.82 0.93, 1.78 1.78, 3.55 3.55" stroke="#343a40" stroke-width="2" fill="none"></path></g></g><mask></mask><g stroke-linecap="round" transform="translate(523.5083596292293 148.06309992317267) rotate(0 32.20654691739992 32.206546917399976)"><path d="M38.47 0.84 C44.37 1.64, 52.15 5.73, 56.39 10.32 C60.64 14.91, 63.41 22.16, 63.94 28.4 C64.48 34.63, 62.76 42.24, 59.62 47.75 C56.48 53.26, 50.77 58.86, 45.12 61.46 C39.48 64.05, 31.9 64.53, 25.76 63.31 C19.63 62.1, 12.41 58.77, 8.3 54.16 C4.19 49.56, 1.87 42.16, 1.09 35.7 C0.3 29.24, 0.39 20.79, 3.6 15.4 C6.8 10.01, 13.92 5.82, 20.32 3.36 C26.72 0.9, 38.11 0.64, 42.01 0.62 C45.9 0.61, 43.8 2.59, 43.69 3.27 M35.94 1.35 C41.96 1.61, 49.78 4.77, 54.31 8.57 C58.84 12.38, 61.71 17.98, 63.13 24.18 C64.54 30.39, 65.01 39.94, 62.8 45.83 C60.6 51.72, 55.18 56.55, 49.9 59.52 C44.62 62.49, 37.75 63.95, 31.12 63.63 C24.49 63.32, 14.99 61.59, 10.12 57.61 C5.25 53.62, 2.96 46.07, 1.91 39.72 C0.87 33.37, 1.78 25.57, 3.85 19.51 C5.92 13.45, 9.36 6.75, 14.34 3.36 C19.32 -0.03, 30.3 -0.48, 33.74 -0.84 C37.19 -1.21, 35.06 0.33, 35 1.19" stroke="none" stroke-width="0" fill="#ffec99"></path><path d="M24.08 0.76 C30.04 -1.39, 39.29 -0.78, 45.07 1.51 C50.86 3.81, 55.54 9, 58.78 14.53 C62.02 20.07, 64.95 28.44, 64.5 34.73 C64.05 41.01, 60.22 47.57, 56.09 52.25 C51.96 56.93, 45.6 61.04, 39.73 62.81 C33.85 64.57, 26.69 65.22, 20.85 62.84 C15.02 60.46, 8.28 53.98, 4.74 48.5 C1.21 43.02, -0.83 36.22, -0.37 29.96 C0.1 23.71, 2.28 16.04, 7.53 10.98 C12.79 5.93, 25.88 1.28, 31.16 -0.37 C36.45 -2.03, 39.19 0.49, 39.22 1.05 M23.13 0.44 C28.76 -1.48, 36.52 0.22, 42.26 2.54 C48 4.86, 54.1 9.22, 57.58 14.36 C61.06 19.5, 62.94 27.46, 63.16 33.39 C63.37 39.31, 62.48 45.17, 58.87 49.93 C55.25 54.68, 47.55 59.54, 41.48 61.94 C35.41 64.33, 28.24 66.19, 22.47 64.31 C16.7 62.43, 10.6 55.9, 6.86 50.65 C3.13 45.39, -0.08 39.2, 0.05 32.79 C0.17 26.38, 3.76 17.21, 7.62 12.18 C11.48 7.16, 20.5 4.46, 23.19 2.63 C25.89 0.81, 23.58 1.1, 23.78 1.24" stroke="#343a40" stroke-width="4" fill="none"></path></g><g stroke-linecap="round"><g transform="translate(554.7794488517643 182.1443826145604) rotate(0 -0.8025666662824733 -15.799195943459722)"><path d="M-0.27 -0.37 C-0.67 -5.8, -1.61 -27.03, -1.98 -32.23 M0.59 0.63 C0.13 -4.74, -1.61 -26.1, -2.2 -31.61" stroke="#343a40" stroke-width="2" fill="none"></path></g><g transform="translate(554.7794488517643 182.1443826145604) rotate(0 -0.8025666662824733 -15.799195943459722)"><path d="M4.67 -17.06 C1.54 -21.85, -0.68 -28.04, -2.2 -31.61 M4.67 -17.06 C1.86 -22.65, -0.44 -28.68, -2.2 -31.61" stroke="#343a40" stroke-width="2" fill="none"></path></g><g transform="translate(554.7794488517643 182.1443826145604) rotate(0 -0.8025666662824733 -15.799195943459722)"><path d="M-6.29 -16.05 C-5.35 -21.19, -3.51 -27.76, -2.2 -31.61 M-6.29 -16.05 C-4.86 -21.99, -2.92 -28.41, -2.2 -31.61" stroke="#343a40" stroke-width="2" fill="none"></path></g></g><mask></mask><g stroke-linecap="round"><g transform="translate(556.1710563450893 183.29872574685317) rotate(0 11.860994007124873 -7.702741667008581)"><path d="M0.43 -0.15 C4.43 -2.51, 19.91 -12, 23.74 -14.54 M-0.02 -0.7 C3.92 -3.17, 19.16 -12.88, 23.25 -15.26" stroke="#343a40" stroke-width="2" fill="none"></path></g><g transform="translate(556.1710563450893 183.29872574685317) rotate(0 11.860994007124873 -7.702741667008581)"><path d="M14.48 -4.23 C16.53 -7.18, 19.53 -10.36, 23.25 -15.26 M14.48 -4.23 C16.65 -7.07, 18.33 -9.43, 23.25 -15.26" stroke="#343a40" stroke-width="2" fill="none"></path></g><g transform="translate(556.1710563450893 183.29872574685317) rotate(0 11.860994007124873 -7.702741667008581)"><path d="M9.44 -12.45 C12.72 -13.36, 16.99 -14.48, 23.25 -15.26 M9.44 -12.45 C12.75 -13.4, 15.59 -13.87, 23.25 -15.26" stroke="#343a40" stroke-width="2" fill="none"></path></g></g><mask></mask><g stroke-linecap="round"><g transform="translate(555.8371211562157 147.70069806324648) rotate(0 0.004414972177528398 2.6944539734865316)"><path d="M0 0 C0.15 1.89, -0.13 3.97, 0 5.39 M0 0 C-0.05 1.67, -0.05 3.46, 0 5.39" stroke="#343a40" stroke-width="2" fill="none"></path></g></g><mask></mask><g stroke-linecap="round"><g transform="translate(554.7952185568724 206.6375458677129) rotate(0 -0.012734671714497381 2.6944539734865316)"><path d="M0 0 C-0.11 1.4, 0.04 3.07, 0 5.39 M0 0 C-0.07 1.22, 0.06 2.31, 0 5.39" stroke="#343a40" stroke-width="2" fill="none"></path></g></g><mask></mask><g stroke-linecap="round"><g transform="translate(528.998276274951 179.06774497017375) rotate(0 -2.5731814171035694 -0.015734353597508743)"><path d="M0 0 C-1.1 0.05, -2.4 -0.11, -5.15 0 M0 0 C-1.3 -0.01, -2.81 -0.03, -5.15 0" stroke="#343a40" stroke-width="2" fill="none"></path></g></g><mask></mask><g stroke-linecap="round"><g transform="translate(587.519773646794 180.7071599950815) rotate(0 -2.4303381580707537 -0.03559269543137589)"><path d="M0 0 C-1.33 -0.09, -2.44 -0.1, -4.86 0 M0 0 C-1.84 -0.04, -3.55 0, -4.86 0" stroke="#343a40" stroke-width="2" fill="none"></path></g></g><mask></mask><g stroke-linecap="round"><g transform="translate(534.7244035034641 156.64430690684196) rotate(0 1.5028053598414317 1.5028053598414886)"><path d="M0 0 C0.95 0.92, 2.09 2.12, 3.01 3.01 M0 0 C0.83 0.85, 1.64 1.64, 3.01 3.01" stroke="#343a40" stroke-width="2" fill="none"></path></g></g><mask></mask><g stroke-linecap="round"><g transform="translate(578.6155265323473 157.8206184118036) rotate(0 -2.2338043713552906 2.233804371355234)"><path d="M0 0 C-0.94 1.22, -2.18 1.95, -4.47 4.47 M0 0 C-1.21 1.06, -2.33 2.26, -4.47 4.47" stroke="#343a40" stroke-width="2" fill="none"></path></g></g><mask></mask><g stroke-linecap="round"><g transform="translate(536.6272221872455 199.31627317906907) rotate(0 -1.7968832360818396 1.7968832360818965)"><path d="M0 0 C-0.88 0.72, -1.77 1.7, -3.59 3.59 M0 0 C-1.13 1.06, -2.23 2.12, -3.59 3.59" stroke="#343a40" stroke-width="2" fill="none"></path></g></g><mask></mask><g stroke-linecap="round"><g transform="translate(576.2432226578499 197.52343754527135) rotate(0 1.7743076897295396 1.7743076897295396)"><path d="M0 0 C1.25 1.33, 2.66 2.57, 3.55 3.55 M0 0 C0.74 0.73, 1.54 1.51, 3.55 3.55" stroke="#343a40" stroke-width="2" fill="none"></path></g></g><mask></mask><g stroke-linecap="round" transform="translate(154.32223384659574 269.7112527658428) rotate(0 32.20654691739992 32.20654691739992)"><path d="M26.53 0.67 C32.55 -0.89, 40.42 0.98, 46.19 3.75 C51.97 6.52, 58.2 11.76, 61.18 17.27 C64.15 22.77, 64.97 30.53, 64.04 36.78 C63.11 43.03, 59.85 50.4, 55.59 54.75 C51.34 59.1, 44.75 61.81, 38.49 62.89 C32.24 63.96, 23.68 63.52, 18.08 61.2 C12.47 58.87, 7.92 54.35, 4.84 48.93 C1.76 43.51, -0.99 35.18, -0.4 28.66 C0.19 22.15, 3.76 14.6, 8.39 9.84 C13.02 5.08, 23.95 1.52, 27.4 0.1 C30.85 -1.33, 28.86 0.68, 29.08 1.28 M38.2 0.72 C44.55 1.08, 52.34 4.2, 56.67 8.51 C61 12.82, 63.77 20.04, 64.21 26.59 C64.64 33.13, 62.28 41.84, 59.27 47.77 C56.26 53.69, 51.41 59.6, 46.13 62.12 C40.84 64.63, 33.67 63.89, 27.56 62.87 C21.46 61.84, 14.04 60.34, 9.51 55.97 C4.98 51.59, 1.43 43.2, 0.38 36.59 C-0.68 29.98, 0.51 21.98, 3.19 16.31 C5.88 10.65, 10.6 5.24, 16.49 2.59 C22.38 -0.06, 34.81 0.55, 38.52 0.41 C42.22 0.27, 38.8 1.36, 38.73 1.74" stroke="none" stroke-width="0" fill="#ffec99"></path><path d="M41.51 1.47 C47.41 2.62, 54.4 7.58, 58.26 12.63 C62.11 17.67, 64.49 25.31, 64.64 31.73 C64.79 38.16, 62.73 45.91, 59.16 51.19 C55.59 56.47, 49.19 61.43, 43.22 63.42 C37.26 65.41, 29.41 65.11, 23.37 63.13 C17.33 61.16, 10.8 56.75, 6.96 51.56 C3.12 46.36, 0.41 38.14, 0.31 31.96 C0.21 25.79, 2.96 19.68, 6.36 14.49 C9.76 9.31, 14.75 2.85, 20.72 0.88 C26.69 -1.09, 38.22 2.37, 42.18 2.67 C46.15 2.97, 44.51 2.45, 44.48 2.68 M45.83 1.75 C51.4 3.67, 56.64 9.33, 59.78 14.62 C62.92 19.91, 65.04 27.04, 64.67 33.49 C64.3 39.93, 61.71 48.15, 57.55 53.3 C53.38 58.45, 45.83 63.07, 39.69 64.41 C33.56 65.74, 26.54 63.93, 20.73 61.3 C14.92 58.68, 8.44 54.02, 4.82 48.67 C1.19 43.32, -1.65 35.27, -1.02 29.2 C-0.38 23.13, 4.45 16.77, 8.61 12.25 C12.78 7.72, 17.74 3.66, 23.98 2.06 C30.22 0.46, 42.91 2.33, 46.05 2.63 C49.2 2.94, 43.05 3.18, 42.85 3.89" stroke="#343a40" stroke-width="4" fill="none"></path></g><g stroke-linecap="round"><g transform="translate(185.59332306913075 303.79253545723054) rotate(0 -0.887325116638749 -15.954680701139239)"><path d="M0.32 0.15 C0.07 -5.14, -1.47 -26.72, -1.92 -32.06 M-0.18 -0.25 C-0.42 -5.42, -1.68 -25.92, -2.1 -31.34" stroke="#343a40" stroke-width="2" fill="none"></path></g><g transform="translate(185.59332306913075 303.79253545723054) rotate(0 -0.887325116638749 -15.954680701139239)"><path d="M4.42 -16.63 C3.22 -19.17, 1.61 -23.07, -2.1 -31.34 M4.42 -16.63 C2.29 -21.49, 0.21 -26.58, -2.1 -31.34" stroke="#343a40" stroke-width="2" fill="none"></path></g><g transform="translate(185.59332306913075 303.79253545723054) rotate(0 -0.887325116638749 -15.954680701139239)"><path d="M-6.56 -15.89 C-5.31 -18.62, -4.48 -22.69, -2.1 -31.34 M-6.56 -15.89 C-4.92 -21.01, -3.23 -26.36, -2.1 -31.34" stroke="#343a40" stroke-width="2" fill="none"></path></g></g><mask></mask><g stroke-linecap="round"><g transform="translate(186.9849305624557 304.9468785895233) rotate(0 12.001868022664894 -7.794573455280215)"><path d="M0.49 0.03 C4.43 -2.46, 20.03 -12.29, 23.92 -14.78 M0.08 -0.43 C3.92 -3.09, 19.63 -13.32, 23.53 -15.62" stroke="#343a40" stroke-width="2" fill="none"></path></g><g transform="translate(186.9849305624557 304.9468785895233) rotate(0 12.001868022664894 -7.794573455280215)"><path d="M14.86 -4.51 C17.99 -8.44, 21.36 -12.55, 23.53 -15.62 M14.86 -4.51 C17.88 -7.99, 20.74 -11.57, 23.53 -15.62" stroke="#343a40" stroke-width="2" fill="none"></path></g><g transform="translate(186.9849305624557 304.9468785895233) rotate(0 12.001868022664894 -7.794573455280215)"><path d="M9.74 -12.68 C14.71 -13.71, 19.92 -14.89, 23.53 -15.62 M9.74 -12.68 C14.43 -13.53, 18.94 -14.47, 23.53 -15.62" stroke="#343a40" stroke-width="2" fill="none"></path></g></g><mask></mask><g stroke-linecap="round"><g transform="translate(186.6509953735822 269.3488509059166) rotate(0 0.02345360017989151 2.6944539734865316)"><path d="M0 0 C0.08 2.09, 0.04 4.24, 0 5.39 M0 0 C0.09 1.91, 0.02 3.77, 0 5.39" stroke="#343a40" stroke-width="2" fill="none"></path></g></g><mask></mask><g stroke-linecap="round"><g transform="translate(185.6090927742389 328.2856987103828) rotate(0 0.027137099687934096 2.6944539734865316)"><path d="M0 0 C0.05 1.73, 0.09 3.48, 0 5.39 M0 0 C0.02 1.85, 0 3.65, 0 5.39" stroke="#343a40" stroke-width="2" fill="none"></path></g></g><mask></mask><g stroke-linecap="round"><g transform="translate(159.81215049231741 300.7158978128439) rotate(0 -2.5731814171035694 0.049205502159566095)"><path d="M0 0 C-1.43 0.12, -2.97 0.14, -5.15 0 M0 0 C-1.77 0.03, -3.6 0.06, -5.15 0" stroke="#343a40" stroke-width="2" fill="none"></path></g></g><mask></mask><g stroke-linecap="round"><g transform="translate(218.3336478641604 302.3553128377516) rotate(0 -2.4303381580707537 0.02511087547338775)"><path d="M0 0 C-1.53 0.14, -3.11 0.02, -4.86 0 M0 0 C-1.72 0.06, -3.22 -0.06, -4.86 0" stroke="#343a40" stroke-width="2" fill="none"></path></g></g><mask></mask><g stroke-linecap="round"><g transform="translate(165.5382777208306 278.2924597495121) rotate(0 1.5028053598414317 1.5028053598414886)"><path d="M0 0 C1.16 1.1, 2.25 2.16, 3.01 3.01 M0 0 C1.03 0.93, 1.91 1.91, 3.01 3.01" stroke="#343a40" stroke-width="2" fill="none"></path></g></g><mask></mask><g stroke-linecap="round"><g transform="translate(209.42940074971375 279.4687712544737) rotate(0 -2.2338043713552906 2.233804371355234)"><path d="M0 0 C-1.62 1.67, -3.34 3.21, -4.47 4.47 M0 0 C-1.72 1.52, -3.16 3.24, -4.47 4.47" stroke="#343a40" stroke-width="2" fill="none"></path></g></g><mask></mask><g stroke-linecap="round"><g transform="translate(167.44109640461193 320.9644260217392) rotate(0 -1.7968832360818396 1.7968832360818965)"><path d="M0 0 C-1.05 0.94, -2.1 2.31, -3.59 3.59 M0 0 C-0.72 0.77, -1.6 1.55, -3.59 3.59" stroke="#343a40" stroke-width="2" fill="none"></path></g></g><mask></mask><g stroke-linecap="round"><g transform="translate(207.0570968752163 319.1715903879415) rotate(0 1.7743076897295396 1.7743076897295396)"><path d="M0 0 C1.11 1.12, 1.87 1.86, 3.55 3.55 M0 0 C0.71 0.74, 1.41 1.54, 3.55 3.55" stroke="#343a40" stroke-width="2" fill="none"></path></g></g><mask></mask></svg>