<?xml version="1.0" standalone="no"?>
<!DOCTYPE svg PUBLIC "-//W3C//DTD SVG 1.1//EN" "http://www.w3.org/Graphics/SVG/1.1/DTD/svg11.dtd">
<svg version="1.1" xmlns="http://www.w3.org/2000/svg" viewBox="0 0 874.6543566437385 169.94159426526312" width="874.6543566437385" height="169.94159426526312"><!-- svg-source:excalidraw --><metadata></metadata><defs><style class="style-fonts">
      </style></defs><g stroke-linecap="round"><g transform="translate(20.149348899082725 71.199197387401) rotate(0 34.61067120557436 26.037385677587736)" fill-rule="evenodd"><path d="M-0.33 0.21 L11.34 49.6 L60.31 51.64 L68.66 2.38 L1.9 -1.1" stroke="none" stroke-width="0" fill="#ffd43b" fill-rule="evenodd"></path><path d="M0 0 C4.75 14.25, 8.17 29.79, 12.7 51.44 M0 0 C4.35 16.81, 8.72 32.58, 12.7 51.44 M12.7 51.44 C25.68 52.64, 35.61 51.53, 60.75 52.07 M12.7 51.44 C23.49 51.56, 36.44 51.52, 60.75 52.07 M60.75 52.07 C62.13 32.14, 65.42 14.96, 69.22 1.69 M60.75 52.07 C63.96 39.42, 65.25 25.94, 69.22 1.69 M69.22 1.69 C54.63 3.16, 37.99 2, 0 0 M69.22 1.69 C47.78 0.85, 25.39 1.36, 0 0 M0 0 C0 0, 0 0, 0 0 M0 0 C0 0, 0 0, 0 0" stroke="transparent" stroke-width="2" fill="none"></path></g></g><mask></mask><g stroke-linecap="round" transform="translate(9.99999999999909 9.99999999999909) rotate(0 44.9913757333311 44.9913757333311)"><path d="M40.33 -0.07 C47.9 -1.27, 58.49 0.97, 65.87 4.97 C73.24 8.96, 80.65 16.66, 84.56 23.91 C88.48 31.17, 89.87 40.48, 89.35 48.51 C88.83 56.54, 86.23 65.79, 81.44 72.08 C76.66 78.38, 68.18 83.34, 60.65 86.28 C53.11 89.23, 44.23 91.14, 36.25 89.74 C28.26 88.34, 18.61 83.61, 12.74 77.87 C6.87 72.14, 2.83 63.47, 1.03 55.34 C-0.77 47.21, -0.67 36.92, 1.93 29.11 C4.53 21.29, 9.63 13.21, 16.63 8.45 C23.64 3.69, 38.61 1.76, 43.97 0.52 C49.33 -0.71, 48.63 0.31, 48.81 1.04 M48.48 0.2 C55.84 0.11, 64.54 4.42, 70.78 9.14 C77.03 13.86, 82.71 20.94, 85.96 28.51 C89.21 36.09, 91.67 46.58, 90.27 54.58 C88.87 62.58, 83.47 71.02, 77.56 76.52 C71.64 82.02, 62.85 85.84, 54.8 87.6 C46.75 89.36, 36.79 89.67, 29.24 87.06 C21.7 84.45, 14.32 78.37, 9.52 71.95 C4.72 65.52, 1.31 56.44, 0.47 48.5 C-0.37 40.55, 0.57 31.46, 4.5 24.27 C8.43 17.07, 16.88 9.47, 24.06 5.32 C31.25 1.17, 43.45 -0.16, 47.62 -0.63 C51.78 -1.1, 48.77 1.57, 49.04 2.49" stroke="none" stroke-width="0" fill="#ffd43b"></path><path d="M44.71 0.17 C52.45 -0.44, 62.8 3.36, 69.62 7.58 C76.44 11.8, 82.25 18.18, 85.63 25.5 C89.01 32.81, 90.84 43.22, 89.91 51.47 C88.98 59.71, 85.33 68.84, 80.05 74.94 C74.76 81.04, 66.25 85.85, 58.21 88.07 C50.17 90.29, 39.66 90.64, 31.81 88.26 C23.96 85.89, 16.34 79.84, 11.12 73.84 C5.89 67.84, 1.68 60.07, 0.47 52.27 C-0.75 44.47, 0.32 34.49, 3.83 27.06 C7.33 19.63, 13.78 12.25, 21.51 7.68 C29.23 3.12, 44.44 0.55, 50.16 -0.34 C55.88 -1.24, 55.88 1.56, 55.82 2.31 M44.26 0.01 C51.59 -0.55, 60.71 3.97, 67.75 8.34 C74.8 12.71, 82.71 19.29, 86.53 26.23 C90.35 33.18, 91.81 41.96, 90.68 50.01 C89.55 58.06, 85.28 67.97, 79.74 74.53 C74.2 81.1, 65.05 87.35, 57.43 89.4 C49.81 91.46, 41.5 89.3, 34.01 86.88 C26.53 84.47, 17.93 80.6, 12.52 74.93 C7.12 69.26, 2.9 60.75, 1.58 52.86 C0.25 44.96, 1.67 35.06, 4.59 27.56 C7.51 20.06, 12.63 12.68, 19.1 7.85 C25.57 3.02, 39.04 -0.32, 43.42 -1.44 C47.8 -2.56, 44.98 0.34, 45.38 1.14" stroke="transparent" stroke-width="2" fill="none"></path></g><g stroke-linecap="round"><g transform="translate(31.9199792446434 120.15304141616252) rotate(0 24.036386242315075 19.730641178055066)" fill-rule="evenodd"><path d="M1.16 0.63 L49.15 1.41 L46.73 5.1 L49.85 13.16 L45.24 18.92 L50.45 24.68 L43.71 30.14 L43.41 33.08 L33.22 37.72 L13.87 38.26 L3.93 32.53 L7.73 25.71 L0.25 20.86 L5.81 16.9 L-0.78 9.82 L3.79 8.04 L-0.3 0.67" stroke="none" stroke-width="0" fill="#ced4da" fill-rule="evenodd"></path><path d="M0 0 C13.49 0.83, 25.89 0.97, 48.78 1.17 M0 0 C15.84 0.88, 33.27 1.9, 48.78 1.17 M48.78 1.17 C47.83 2.82, 47.48 4.06, 46.89 5.7 M48.78 1.17 C48.41 2.75, 47.8 3.72, 46.89 5.7 M46.89 5.7 C47.13 6.7, 47.97 9.11, 49.35 12.17 M46.89 5.7 C47.42 8.23, 48.73 10.18, 49.35 12.17 M49.35 12.17 C47.62 13.71, 46.22 16.4, 44.38 16.96 M49.35 12.17 C48.6 13.43, 47.48 14.39, 44.38 16.96 M44.38 16.96 C44.58 18.86, 46.46 20.56, 48.87 23.75 M44.38 16.96 C45.3 18.53, 46.08 19.62, 48.87 23.75 M48.87 23.75 C47.19 25.84, 44.48 27.05, 41.82 28.45 M48.87 23.75 C46.41 25.3, 44.78 26.3, 41.82 28.45 M41.82 28.45 C42.03 29.65, 42.46 31.05, 43.25 32.46 M41.82 28.45 C42.2 29.5, 42.61 30.41, 43.25 32.46 M43.25 32.46 C40.37 33.88, 37.34 36.44, 34.88 39.46 M43.25 32.46 C41.76 33.85, 39.7 35.13, 34.88 39.46 M34.88 39.46 C28.99 40.05, 23.24 38.04, 15.37 39.46 M34.88 39.46 C26.95 38.96, 20.6 40.4, 15.37 39.46 M15.37 39.46 C12.42 35.93, 7.16 34.11, 4.58 30.96 M15.37 39.46 C12.07 37.05, 8.88 34.14, 4.58 30.96 M4.58 30.96 C6 29.09, 6.02 26.15, 7.06 25.19 M4.58 30.96 C5.43 29.2, 6.36 27.44, 7.06 25.19 M7.06 25.19 C3.75 23.33, 1.54 21.4, 0.4 21.1 M7.06 25.19 C4.96 23.66, 2.3 22.54, 0.4 21.1 M0.4 21.1 C1.56 19.43, 3.72 17.88, 5.39 15.87 M0.4 21.1 C1.76 19.84, 2.99 18.39, 5.39 15.87 M5.39 15.87 C3.6 14.54, 1.29 11.76, -1.28 10.58 M5.39 15.87 C3 14.08, 0.77 12.04, -1.28 10.58 M-1.28 10.58 C0.27 9.4, 1.65 7.25, 2.48 6.14 M-1.28 10.58 C-0.36 9.32, 0.89 7.94, 2.48 6.14 M2.48 6.14 C1.93 4.89, 1.03 1.81, 0 0 M2.48 6.14 C1.95 3.95, 1.11 1.59, 0 0 M0 0 C0 0, 0 0, 0 0 M0 0 C0 0, 0 0, 0 0" stroke="transparent" stroke-width="2" fill="none"></path></g></g><mask></mask><g stroke-linecap="round" transform="translate(21.288830060448163 14.079303391821668) rotate(0 35.42166439232733 35.42166439232733)"><path d="M31.55 -0.1 C38.03 -1.06, 47.42 1.06, 53.57 4.85 C59.71 8.64, 65.79 16.08, 68.43 22.66 C71.06 29.25, 70.98 37.68, 69.35 44.37 C67.73 51.06, 63.93 58.52, 58.67 62.8 C53.41 67.08, 44.69 69.45, 37.8 70.05 C30.91 70.64, 23.33 69.76, 17.35 66.39 C11.38 63.02, 4.7 56.29, 1.94 49.82 C-0.81 43.36, -0.78 34.56, 0.83 27.58 C2.43 20.6, 5.97 12.67, 11.56 7.93 C17.16 3.19, 30.04 0.25, 34.37 -0.85 C38.71 -1.94, 37.24 0.6, 37.57 1.34 M43.56 1.14 C50 2.02, 57.41 6.69, 61.68 11.78 C65.96 16.86, 68.69 24.96, 69.21 31.67 C69.73 38.38, 67.8 46.09, 64.8 52.05 C61.8 58.02, 57.18 64.56, 51.22 67.48 C45.27 70.39, 35.98 71.18, 29.06 69.55 C22.13 67.92, 14.44 62.77, 9.68 57.7 C4.92 52.64, 1.19 45.79, 0.49 39.17 C-0.21 32.55, 2 23.9, 5.49 17.98 C8.97 12.07, 15.36 6.38, 21.38 3.7 C27.4 1.02, 38.01 2.28, 41.61 1.9 C45.21 1.53, 43.05 1.18, 42.97 1.44" stroke="none" stroke-width="0" fill="#ffec99"></path><path d="M38.19 -0.58 C44.79 -0.55, 53.52 4.06, 58.97 8.81 C64.42 13.57, 69.31 21.22, 70.9 27.94 C72.49 34.66, 71.46 42.82, 68.5 49.13 C65.53 55.44, 59.13 62.34, 53.12 65.82 C47.12 69.3, 39.29 70.49, 32.47 70.02 C25.66 69.55, 17.52 67.29, 12.23 62.98 C6.94 58.66, 2.15 50.94, 0.73 44.13 C-0.69 37.32, 1.09 28.76, 3.71 22.14 C6.34 15.51, 10.09 7.96, 16.48 4.38 C22.88 0.8, 37.14 1.08, 42.07 0.66 C47 0.23, 46.08 1.11, 46.05 1.81 M41.52 2.16 C48.26 3.1, 57.47 7.22, 62.51 11.97 C67.55 16.73, 71.07 23.76, 71.76 30.68 C72.44 37.6, 70.36 47.07, 66.61 53.48 C62.86 59.89, 55.45 66.59, 49.25 69.13 C43.05 71.66, 35.89 70.33, 29.41 68.69 C22.94 67.06, 15.09 64.08, 10.4 59.34 C5.71 54.59, 2.09 47.02, 1.26 40.24 C0.43 33.45, 2.34 24.75, 5.42 18.64 C8.5 12.53, 13.72 6.8, 19.74 3.58 C25.77 0.36, 37.63 -0.35, 41.57 -0.67 C45.51 -0.98, 43.1 1.08, 43.38 1.7" stroke="transparent" stroke-width="2" fill="none"></path></g><g stroke-linecap="round" transform="translate(37.26821674771418 26.208883418332334) rotate(0 19.328238486479677 19.328238486479677)"><path d="M18.77 -0.33 C22.65 -0.71, 27.58 1.43, 30.81 4.02 C34.04 6.62, 37.18 11.07, 38.14 15.23 C39.09 19.38, 38.52 25.18, 36.54 28.93 C34.55 32.67, 30.1 36.18, 26.24 37.69 C22.38 39.2, 17.3 39.39, 13.36 37.97 C9.42 36.55, 4.79 32.69, 2.62 29.18 C0.45 25.68, -0.22 20.9, 0.34 16.92 C0.91 12.93, 2.9 8.07, 6.03 5.27 C9.16 2.47, 16.92 1, 19.13 0.13 C21.34 -0.74, 19.36 -0.17, 19.29 0.06 M16.53 0.52 C20.37 -0.4, 26.15 0.83, 29.74 2.98 C33.33 5.12, 36.8 9.49, 38.06 13.4 C39.31 17.32, 38.98 22.65, 37.28 26.46 C35.57 30.28, 31.56 34.43, 27.81 36.3 C24.06 38.18, 18.62 38.58, 14.8 37.73 C10.98 36.88, 7.26 34.39, 4.88 31.19 C2.5 27.99, 0.46 22.77, 0.5 18.54 C0.55 14.3, 2.47 8.84, 5.15 5.79 C7.84 2.74, 14.68 1.07, 16.64 0.23 C18.6 -0.62, 16.87 0.35, 16.92 0.72" stroke="none" stroke-width="0" fill="#fff9db"></path><path d="M21.9 0.24 C25.94 0.58, 31.15 3.44, 33.98 6.45 C36.8 9.47, 38.77 14.22, 38.85 18.32 C38.93 22.41, 36.97 27.77, 34.44 31.02 C31.91 34.27, 27.66 36.84, 23.67 37.82 C19.69 38.8, 14.23 38.69, 10.52 36.92 C6.81 35.15, 2.96 31.02, 1.43 27.18 C-0.11 23.34, 0.14 17.96, 1.32 13.89 C2.5 9.81, 5 5.01, 8.52 2.74 C12.03 0.47, 19.95 0.62, 22.42 0.25 C24.9 -0.12, 23.38 0.14, 23.36 0.52 M20.72 0.8 C24.75 0.98, 30.54 3.25, 33.61 6.03 C36.69 8.8, 38.9 13.32, 39.16 17.46 C39.43 21.6, 37.8 27.31, 35.22 30.86 C32.65 34.41, 27.66 37.9, 23.72 38.75 C19.77 39.61, 15.1 37.92, 11.53 36.01 C7.97 34.1, 4.03 30.87, 2.32 27.3 C0.61 23.72, 0.19 18.48, 1.28 14.56 C2.37 10.64, 5.62 6.14, 8.86 3.77 C12.1 1.41, 18.74 1.03, 20.71 0.37 C22.69 -0.3, 20.57 -0.53, 20.7 -0.23" stroke="transparent" stroke-width="2" fill="none"></path></g><g stroke-linecap="round"><g transform="translate(35.93102033125797 77.71145657248235) rotate(0 20.01799996496402 16.88905255096506)" fill-rule="evenodd"><path d="M-0.87 -0.71 L40.96 -0.4 L36.07 30.22 L32.54 33.03 L9.73 33.18 L5.85 29.55 L0.25 0.42" stroke="none" stroke-width="0" fill="#ffec99" fill-rule="evenodd"></path><path d="M0 0 C12.45 -0.87, 25.75 -0.05, 40.04 -0.2 M0 0 C15.91 -0.47, 31.93 -0.22, 40.04 -0.2 M40.04 -0.2 C38.77 7.57, 38.83 14.49, 35.41 30.57 M40.04 -0.2 C38.79 6.89, 37.38 14.39, 35.41 30.57 M35.41 30.57 C34.23 31.62, 33.25 33.18, 32.15 33.98 M35.41 30.57 C34.43 31.67, 33.32 32.82, 32.15 33.98 M32.15 33.98 C23.46 34.47, 15.22 33.88, 9.53 33.15 M32.15 33.98 C23.55 33.24, 16.01 33.5, 9.53 33.15 M9.53 33.15 C7.84 31.67, 6.41 30.1, 5.35 29.38 M9.53 33.15 C8.63 32.41, 7.93 31.5, 5.35 29.38 M5.35 29.38 C2.71 17.44, 1.52 7.51, 0 0 M5.35 29.38 C4.22 22.6, 2.58 16.07, 0 0 M0 0 C0 0, 0 0, 0 0 M0 0 C0 0, 0 0, 0 0" stroke="transparent" stroke-width="2" fill="none"></path></g></g><mask></mask><g stroke-linecap="round" transform="translate(165.44126874376798 22.366388111714514) rotate(0 52.64481088502271 66.73285886833901)"><path d="M-0.25 -0.88 L104.96 0.21 L103.93 131.62 L-0.45 133.03" stroke="none" stroke-width="0" fill="#fff"></path><path d="M0 0 C37.54 1.1, 75.57 1.88, 105.29 0 M0 0 C36.28 0.7, 71.72 0.63, 105.29 0 M105.29 0 C106.88 51.28, 103.77 99.19, 105.29 133.47 M105.29 0 C104.49 32.86, 105.84 66.17, 105.29 133.47 M105.29 133.47 C78.19 133.59, 47.74 134.05, 0 133.47 M105.29 133.47 C80.63 134.6, 57.64 132.79, 0 133.47 M0 133.47 C1.3 82.73, 1.06 28.49, 0 0 M0 133.47 C1.57 88.97, 1.87 43.37, 0 0" stroke="#495057" stroke-width="2" fill="none"></path></g><g transform="translate(185.76321551797082 38.8341114759296) rotate(0 30.989260037082204 -0.1573058885132923)" stroke="none"><path fill="#495057" d="M -1.85,-1.85 Q -1.85,-1.85 -1.14,-2.60 -0.43,-3.35 0.73,-4.13 1.90,-4.90 3.10,-5.11 4.29,-5.33 5.94,-4.62 7.59,-3.92 9.07,-2.80 10.56,-1.68 11.80,-0.65 13.05,0.36 14.29,-0.25 15.52,-0.86 16.45,-2.16 17.37,-3.46 18.56,-4.71 19.75,-5.97 21.09,-6.80 22.43,-7.63 24.83,-7.47 27.22,-7.31 28.28,-6.68 29.34,-6.05 30.37,-5.14 31.41,-4.23 32.26,-3.39 33.11,-2.56 34.49,-1.00 35.87,0.55 36.30,-0.73 36.73,-2.03 37.70,-2.98 38.68,-3.93 40.69,-4.35 42.69,-4.76 44.59,-3.98 46.48,-3.20 47.99,-2.30 49.51,-1.40 50.80,-1.90 52.08,-2.39 53.44,-2.79 54.80,-3.19 56.20,-3.47 57.59,-3.75 60.52,-3.50 63.44,-3.26 63.93,-2.94 64.41,-2.62 64.76,-2.16 65.12,-1.70 65.31,-1.16 65.50,-0.61 65.51,-0.03 65.51,0.54 65.33,1.09 65.15,1.64 64.81,2.11 64.46,2.57 63.99,2.90 63.51,3.23 62.95,3.39 62.40,3.55 61.82,3.52 61.24,3.50 60.70,3.29 60.16,3.08 59.71,2.71 59.27,2.34 58.96,1.85 58.66,1.35 58.53,0.79 58.40,0.22 58.46,-0.34 58.51,-0.92 58.75,-1.45 58.99,-1.97 59.38,-2.40 59.78,-2.82 60.29,-3.10 60.80,-3.38 61.37,-3.48 61.94,-3.58 62.51,-3.49 63.08,-3.40 63.60,-3.13 64.11,-2.87 64.51,-2.45 64.92,-2.03 65.17,-1.51 65.41,-0.99 65.48,-0.41 65.55,0.15 65.43,0.72 65.31,1.29 65.02,1.79 64.72,2.29 64.29,2.67 63.85,3.04 63.31,3.26 62.78,3.48 62.20,3.52 61.62,3.56 61.06,3.41 60.50,3.26 60.50,3.26 60.50,3.26 59.18,3.31 57.86,3.36 56.31,3.79 54.77,4.21 53.66,4.69 52.56,5.16 51.07,5.39 49.58,5.61 48.54,5.35 47.51,5.09 45.72,4.24 43.93,3.39 43.27,2.49 42.61,1.58 41.83,2.48 41.06,3.38 39.92,4.56 38.78,5.73 37.60,6.40 36.42,7.07 34.38,6.61 32.34,6.15 31.50,5.29 30.65,4.42 29.65,3.30 28.65,2.18 27.19,0.91 25.73,-0.35 24.61,-0.41 23.50,-0.47 22.63,0.62 21.76,1.71 20.50,3.33 19.24,4.95 18.42,5.68 17.61,6.41 16.60,6.90 15.60,7.38 13.98,7.34 12.37,7.30 11.33,6.70 10.30,6.09 9.12,5.15 7.95,4.22 6.65,3.10 5.34,1.98 4.34,1.21 3.33,0.45 2.59,1.15 1.85,1.85 1.60,2.04 1.35,2.24 1.06,2.37 0.78,2.50 0.46,2.56 0.15,2.61 -0.15,2.59 -0.47,2.57 -0.77,2.48 -1.07,2.39 -1.34,2.22 -1.61,2.06 -1.84,1.84 -2.06,1.61 -2.22,1.34 -2.39,1.07 -2.48,0.77 -2.57,0.47 -2.59,0.15 -2.61,-0.15 -2.56,-0.46 -2.50,-0.78 -2.37,-1.06 -2.24,-1.35 -2.04,-1.60 -1.85,-1.85 -1.85,-1.85 L -1.85,-1.85 Z"></path></g><g transform="translate(186.70705084904966 63.67246201242233) rotate(0 30.045424706003814 1.573058885131104)" stroke="none"><path fill="#495057" d="M -0.90,-1.91 Q -0.90,-1.91 0.64,-2.63 2.19,-3.35 3.88,-3.76 5.58,-4.17 7.63,-4.11 9.68,-4.05 11.93,-3.35 14.18,-2.65 16.26,-1.56 18.34,-0.46 20.03,0.51 21.72,1.49 23.11,2.33 24.51,3.16 25.81,3.72 27.12,4.28 27.76,3.08 28.41,1.87 30.06,0.57 31.72,-0.72 32.81,-1.02 33.90,-1.31 35.18,-1.33 36.46,-1.34 37.71,-1.01 38.97,-0.68 40.80,0.06 42.62,0.81 43.80,1.13 44.98,1.45 46.98,-0.20 48.99,-1.85 50.02,-2.84 51.05,-3.82 52.68,-4.97 54.32,-6.12 55.92,-6.31 57.53,-6.51 59.66,-5.33 61.78,-4.15 62.15,-3.81 62.52,-3.47 62.76,-3.03 63.00,-2.59 63.08,-2.10 63.17,-1.61 63.10,-1.12 63.02,-0.62 62.80,-0.18 62.57,0.26 62.21,0.60 61.85,0.95 61.40,1.17 60.95,1.38 60.46,1.44 59.96,1.51 59.47,1.40 58.98,1.30 58.55,1.05 58.12,0.80 57.79,0.42 57.46,0.05 57.27,-0.40 57.08,-0.86 57.05,-1.36 57.01,-1.86 57.14,-2.34 57.27,-2.83 57.54,-3.24 57.82,-3.66 58.21,-3.97 58.60,-4.27 59.07,-4.44 59.55,-4.61 60.04,-4.61 60.54,-4.62 61.02,-4.47 61.49,-4.31 61.90,-4.02 62.30,-3.72 62.58,-3.31 62.87,-2.90 63.01,-2.42 63.15,-1.94 63.13,-1.44 63.11,-0.95 62.93,-0.48 62.75,-0.01 62.43,0.36 62.12,0.75 61.69,1.01 61.27,1.27 60.78,1.39 60.29,1.50 59.80,1.45 59.30,1.41 58.84,1.20 58.39,1.00 58.39,1.00 58.39,1.00 57.68,0.14 56.97,-0.70 55.99,-0.23 55.02,0.24 54.17,1.09 53.32,1.94 52.15,3.43 50.98,4.92 49.65,5.98 48.32,7.04 45.86,7.21 43.40,7.39 41.67,6.78 39.95,6.18 38.54,5.52 37.14,4.87 35.64,4.57 34.14,4.27 33.19,4.89 32.24,5.50 31.11,6.60 29.98,7.70 28.97,8.25 27.96,8.81 26.68,8.53 25.40,8.24 23.96,7.25 22.52,6.25 21.25,5.37 19.98,4.49 18.39,3.57 16.79,2.65 14.97,1.82 13.15,0.99 11.34,0.55 9.53,0.12 7.98,0.08 6.43,0.05 5.19,0.25 3.95,0.46 2.43,1.18 0.90,1.91 0.66,1.99 0.41,2.07 0.16,2.09 -0.09,2.11 -0.34,2.07 -0.59,2.03 -0.83,1.93 -1.06,1.83 -1.26,1.67 -1.47,1.52 -1.63,1.32 -1.79,1.12 -1.90,0.89 -2.01,0.66 -2.06,0.41 -2.11,0.16 -2.10,-0.09 -2.09,-0.34 -2.01,-0.59 -1.94,-0.83 -1.81,-1.05 -1.69,-1.27 -1.51,-1.46 -1.33,-1.64 -1.11,-1.78 -0.90,-1.91 -0.90,-1.91 L -0.90,-1.91 Z"></path></g><g transform="translate(183.56093307878837 91.97154209620294) rotate(0 33.19154247626602 0.786529442565552)" stroke="none"><path fill="#495057" d="M -0.52,-3.23 Q -0.52,-3.23 1.21,-3.68 2.95,-4.12 4.50,-4.64 6.05,-5.16 7.76,-5.60 9.47,-6.05 11.27,-6.26 13.08,-6.47 14.95,-6.48 16.83,-6.48 18.93,-6.02 21.03,-5.56 23.05,-4.70 25.07,-3.84 26.75,-2.87 28.44,-1.91 29.71,-1.24 30.98,-0.58 31.91,-0.03 32.85,0.50 34.33,-0.29 35.82,-1.10 37.26,-2.10 38.69,-3.10 41.05,-3.38 43.40,-3.65 44.93,-3.02 46.45,-2.38 47.78,-1.51 49.11,-0.64 50.14,-0.01 51.17,0.61 52.89,1.58 54.60,2.54 56.19,2.86 57.77,3.18 59.66,3.00 61.55,2.81 63.46,2.13 65.37,1.45 65.84,1.36 66.31,1.27 66.78,1.34 67.25,1.40 67.68,1.61 68.11,1.83 68.45,2.17 68.78,2.51 68.99,2.94 69.21,3.36 69.27,3.84 69.33,4.31 69.24,4.78 69.15,5.25 68.91,5.67 68.67,6.08 68.32,6.40 67.96,6.72 67.52,6.90 67.08,7.09 66.60,7.13 66.13,7.17 65.66,7.05 65.20,6.93 64.80,6.67 64.40,6.41 64.10,6.04 63.80,5.67 63.64,5.22 63.47,4.77 63.46,4.29 63.45,3.81 63.59,3.36 63.74,2.90 64.02,2.51 64.30,2.13 64.69,1.85 65.07,1.57 65.53,1.43 65.99,1.29 66.47,1.31 66.95,1.32 67.39,1.49 67.84,1.66 68.21,1.96 68.58,2.26 68.84,2.66 69.10,3.06 69.21,3.53 69.32,3.99 69.28,4.47 69.24,4.95 69.05,5.38 68.86,5.82 68.54,6.18 68.22,6.53 67.80,6.77 67.39,7.00 67.39,7.00 67.39,7.00 64.99,7.76 62.58,8.51 61.23,8.74 59.88,8.96 58.44,8.96 57.01,8.96 55.64,8.75 54.26,8.53 53.09,8.09 51.92,7.66 50.08,6.56 48.25,5.46 47.14,4.80 46.03,4.14 45.04,3.53 44.06,2.91 42.65,2.43 41.24,1.95 40.27,2.46 39.31,2.98 38.45,3.64 37.60,4.29 35.81,4.98 34.03,5.67 32.82,5.24 31.61,4.80 30.32,3.79 29.03,2.78 27.82,2.00 26.60,1.23 25.15,0.36 23.70,-0.49 21.98,-1.15 20.25,-1.81 18.54,-2.14 16.83,-2.46 15.17,-2.44 13.51,-2.43 11.99,-2.28 10.46,-2.14 8.88,-1.74 7.30,-1.34 5.64,-0.80 3.98,-0.27 2.25,0.20 0.52,0.67 0.27,0.71 0.03,0.74 -0.20,0.72 -0.44,0.69 -0.67,0.61 -0.90,0.53 -1.11,0.39 -1.31,0.26 -1.47,0.08 -1.64,-0.09 -1.76,-0.31 -1.87,-0.52 -1.94,-0.76 -2.00,-0.99 -2.00,-1.24 -2.01,-1.48 -1.95,-1.72 -1.90,-1.96 -1.79,-2.17 -1.68,-2.39 -1.52,-2.58 -1.37,-2.76 -1.17,-2.91 -0.97,-3.05 -0.74,-3.14 -0.52,-3.23 -0.52,-3.23 L -0.52,-3.23 Z"></path></g><g transform="translate(190.95430983890492 117.7537279637736) rotate(0 25.798165716149924 1.7303647736443963)" stroke="none"><path fill="#495057" d="M -0.66,-2.44 Q -0.66,-2.44 0.31,-2.75 1.30,-3.06 3.03,-3.34 4.75,-3.63 6.89,-3.60 9.04,-3.58 10.63,-2.98 12.23,-2.38 13.68,-1.52 15.13,-0.65 16.34,0.19 17.54,1.04 19.14,1.96 20.73,2.89 22.09,2.24 23.44,1.60 25.16,0.01 26.89,-1.57 28.60,-2.94 30.32,-4.31 32.38,-4.97 34.45,-5.63 36.00,-5.26 37.55,-4.89 38.83,-4.00 40.11,-3.12 41.10,-2.14 42.09,-1.16 43.40,-0.14 44.72,0.86 45.38,-0.60 46.04,-2.07 48.77,-3.15 51.49,-4.23 52.02,-4.16 52.54,-4.09 53.02,-3.86 53.50,-3.62 53.88,-3.25 54.26,-2.87 54.50,-2.40 54.74,-1.92 54.81,-1.39 54.88,-0.86 54.79,-0.34 54.69,0.17 54.43,0.64 54.17,1.10 53.77,1.46 53.38,1.82 52.89,2.03 52.40,2.24 51.87,2.29 51.34,2.34 50.82,2.21 50.30,2.08 49.85,1.80 49.40,1.51 49.07,1.10 48.73,0.69 48.54,0.19 48.36,-0.30 48.34,-0.84 48.33,-1.37 48.48,-1.88 48.63,-2.39 48.94,-2.82 49.25,-3.26 49.68,-3.57 50.11,-3.88 50.62,-4.04 51.13,-4.20 51.67,-4.19 52.20,-4.18 52.70,-4.00 53.20,-3.81 53.62,-3.48 54.03,-3.15 54.32,-2.70 54.61,-2.25 54.74,-1.74 54.87,-1.22 54.83,-0.69 54.79,-0.16 54.58,0.32 54.37,0.81 54.02,1.21 53.67,1.61 53.20,1.87 52.74,2.14 52.22,2.24 51.69,2.34 51.70,2.34 51.70,2.34 51.21,2.41 50.73,2.47 50.04,3.60 49.34,4.73 48.45,5.74 47.56,6.74 46.22,7.07 44.89,7.39 43.67,7.05 42.45,6.71 41.02,5.68 39.60,4.66 38.04,3.21 36.48,1.75 35.46,1.06 34.43,0.37 33.39,0.83 32.34,1.30 31.56,2.03 30.77,2.76 29.90,3.56 29.03,4.35 27.96,5.41 26.89,6.46 25.82,7.19 24.75,7.91 23.40,8.37 22.04,8.83 20.86,8.69 19.67,8.56 18.00,7.66 16.33,6.76 15.38,6.12 14.43,5.48 13.43,4.79 12.42,4.10 10.47,3.09 8.52,2.08 6.83,1.98 5.14,1.89 3.90,1.93 2.67,1.97 1.67,2.21 0.66,2.44 0.36,2.49 0.06,2.53 -0.24,2.50 -0.54,2.47 -0.83,2.37 -1.12,2.27 -1.38,2.10 -1.63,1.94 -1.84,1.71 -2.05,1.49 -2.20,1.22 -2.35,0.95 -2.43,0.66 -2.51,0.36 -2.51,0.06 -2.52,-0.24 -2.46,-0.54 -2.39,-0.84 -2.25,-1.11 -2.12,-1.39 -1.92,-1.62 -1.72,-1.85 -1.48,-2.03 -1.23,-2.21 -0.95,-2.33 -0.66,-2.44 -0.66,-2.44 L -0.66,-2.44 Z"></path></g><g stroke-linecap="round"><g transform="translate(347.7096182333835 101.73146521817125) rotate(0 16.65123099997527 23.844562791964563)" fill-rule="evenodd"><path d="M-0.66 -0.97 L-1.65 47.1 L22.4 24.95 L34.15 19.87 L0.39 0.16" stroke="none" stroke-width="0" fill="#e9ecef" fill-rule="evenodd"></path><path d="M0 0 C-0.24 15.43, -0.67 29.99, -0.8 47.69 M0 0 C-0.56 18.46, -0.55 37.27, -0.8 47.69 M-0.8 47.69 C4.85 41.89, 9.66 35.83, 21.88 23.96 M-0.8 47.69 C8.41 38.02, 17.1 29.17, 21.88 23.96 M21.88 23.96 C24.46 23.29, 28.35 22.01, 34.1 19.45 M21.88 23.96 C26.17 22.35, 30.75 20.23, 34.1 19.45 M34.1 19.45 C21.41 12.67, 9.85 5.85, 0 0 M34.1 19.45 C23.47 13.14, 12.85 7.38, 0 0 M0 0 C0 0, 0 0, 0 0 M0 0 C0 0, 0 0, 0 0" stroke="transparent" stroke-width="1" fill="none"></path></g></g><mask></mask><g stroke-linecap="round" transform="translate(336.1894077909201 24.48161780997907) rotate(0 59.92731943881381 49.53991740275251)"><path d="M75.8 2.07 C85.05 3.48, 95.38 9.24, 102.42 15 C109.46 20.76, 115.47 28.91, 118.04 36.63 C120.62 44.36, 120.49 53.51, 117.87 61.35 C115.25 69.19, 109.5 77.51, 102.32 83.66 C95.14 89.82, 84.46 95.9, 74.78 98.3 C65.11 100.7, 53.87 100.28, 44.28 98.07 C34.69 95.85, 24.44 90.9, 17.25 84.99 C10.05 79.08, 3.64 70.56, 1.11 62.61 C-1.43 54.65, -0.71 45.23, 2.05 37.27 C4.81 29.3, 10.56 20.86, 17.68 14.8 C24.81 8.74, 34.61 2.97, 44.78 0.92 C54.95 -1.12, 72.83 2.12, 78.71 2.52 C84.59 2.92, 80.58 2.51, 80.07 3.33 M87.65 6.87 C96.21 9.8, 104.68 16.12, 110.22 22.89 C115.75 29.66, 120.4 39.06, 120.84 47.47 C121.28 55.88, 117.75 66.04, 112.86 73.37 C107.97 80.7, 100.02 87.33, 91.5 91.45 C82.98 95.56, 71.46 97.8, 61.74 98.07 C52.03 98.35, 41.94 96.61, 33.21 93.11 C24.48 89.61, 14.78 84.2, 9.38 77.07 C3.98 69.95, 1.4 58.77, 0.82 50.37 C0.24 41.96, 1.28 33.92, 5.91 26.64 C10.53 19.35, 19.86 11.07, 28.56 6.66 C37.25 2.24, 47.99 0.24, 58.08 0.14 C68.17 0.03, 83.99 4.87, 89.08 6.01 C94.17 7.16, 89.52 6.54, 88.62 6.99" stroke="none" stroke-width="0" fill="#e9ecef"></path><path d="M78.81 1.98 C87.82 3.76, 98.03 10.72, 104.62 16.96 C111.21 23.19, 116.35 31.16, 118.35 39.39 C120.34 47.62, 119.69 58.44, 116.58 66.32 C113.46 74.2, 107.2 81.51, 99.66 86.67 C92.13 91.84, 81.09 95.62, 71.37 97.32 C61.65 99.03, 50.76 99.31, 41.34 96.89 C31.93 94.46, 21.69 89.04, 14.87 82.78 C8.05 76.52, 2.3 67.63, 0.41 59.34 C-1.49 51.05, -0.02 40.74, 3.49 33.03 C7.01 25.32, 14.16 18.27, 21.5 13.06 C28.85 7.85, 36.84 3.03, 47.57 1.78 C58.3 0.53, 78.5 4.36, 85.87 5.54 C93.24 6.71, 92.15 8.34, 91.8 8.82 M70.97 0.97 C80.87 1.66, 92.05 5.22, 99.56 10.36 C107.06 15.51, 112.82 23.89, 116.02 31.87 C119.21 39.84, 120.57 50.21, 118.71 58.22 C116.85 66.24, 111.29 73.69, 104.87 79.94 C98.45 86.19, 89.46 92.59, 80.18 95.74 C70.9 98.89, 58.74 100.36, 49.19 98.85 C39.65 97.35, 30.29 92.07, 22.9 86.71 C15.52 81.36, 8.43 74.49, 4.91 66.73 C1.38 58.98, 0.39 48.25, 1.73 40.16 C3.07 32.07, 6.51 24.6, 12.95 18.2 C19.39 11.8, 30.63 4.73, 40.36 1.79 C50.08 -1.15, 66.27 0.76, 71.28 0.57 C76.29 0.38, 70.94 0.03, 70.43 0.63" stroke="transparent" stroke-width="1" fill="none"></path></g><g stroke-linecap="round" transform="translate(372.4866499613472 67.62974413022039) rotate(0 3.596665895995102 3.729875743994853)"><path d="M3.96 0.11 C4.7 0.08, 5.48 0.42, 5.96 0.94 C6.45 1.46, 6.81 2.35, 6.86 3.22 C6.92 4.08, 6.64 5.43, 6.29 6.12 C5.94 6.81, 5.46 7.19, 4.77 7.37 C4.08 7.55, 2.87 7.53, 2.13 7.2 C1.4 6.87, 0.67 6.15, 0.35 5.39 C0.03 4.64, 0.02 3.51, 0.23 2.66 C0.44 1.81, 0.99 0.79, 1.62 0.3 C2.26 -0.19, 3.68 -0.28, 4.05 -0.26 C4.43 -0.24, 3.89 0.27, 3.87 0.42 M3.48 0.02 C4.22 0.02, 5.37 0.32, 5.99 0.83 C6.62 1.34, 7.15 2.25, 7.22 3.08 C7.29 3.91, 6.77 5.1, 6.42 5.78 C6.07 6.46, 5.83 6.94, 5.13 7.15 C4.44 7.36, 2.98 7.19, 2.26 7.05 C1.53 6.9, 1.1 6.87, 0.78 6.26 C0.47 5.66, 0.32 4.21, 0.37 3.4 C0.42 2.59, 0.58 1.98, 1.06 1.4 C1.54 0.82, 2.8 0.16, 3.25 -0.07 C3.7 -0.3, 3.71 -0.09, 3.73 0.03" stroke="none" stroke-width="0" fill="#343a40"></path><path d="M3.71 -0.02 C4.45 0, 5.41 0.24, 5.99 0.84 C6.57 1.45, 7.05 2.78, 7.17 3.6 C7.29 4.42, 7.13 5.19, 6.7 5.76 C6.26 6.34, 5.27 6.79, 4.55 7.04 C3.84 7.3, 3.1 7.53, 2.41 7.29 C1.71 7.04, 0.82 6.31, 0.4 5.58 C-0.02 4.84, -0.31 3.74, -0.12 2.9 C0.08 2.07, 0.85 0.99, 1.59 0.56 C2.33 0.13, 3.94 0.35, 4.31 0.33 C4.68 0.3, 3.86 0.35, 3.81 0.4 M3.62 0.2 C4.24 0.12, 5.19 0.14, 5.82 0.71 C6.46 1.28, 7.26 2.81, 7.43 3.62 C7.61 4.43, 7.38 5, 6.86 5.59 C6.34 6.18, 5.17 6.89, 4.34 7.15 C3.51 7.4, 2.61 7.51, 1.88 7.1 C1.14 6.7, 0.25 5.48, -0.06 4.72 C-0.36 3.96, -0.21 3.18, 0.05 2.52 C0.31 1.87, 0.76 1.23, 1.5 0.77 C2.25 0.31, 4.02 -0.15, 4.52 -0.25 C5.01 -0.35, 4.49 0.1, 4.45 0.16" stroke="#495057" stroke-width="1" fill="none"></path></g><g stroke-linecap="round" transform="translate(394.9325093493135 67.6297441302213) rotate(0 3.596665895995102 3.729875743994853)"><path d="M3.77 -0.2 C4.45 -0.22, 5.35 0.24, 5.89 0.89 C6.42 1.53, 6.84 2.84, 6.99 3.68 C7.15 4.53, 7.22 5.34, 6.81 5.97 C6.41 6.6, 5.36 7.28, 4.57 7.49 C3.77 7.7, 2.74 7.62, 2.04 7.24 C1.34 6.86, 0.69 6.01, 0.38 5.2 C0.07 4.38, -0.04 3.15, 0.16 2.34 C0.37 1.53, 1 0.66, 1.61 0.33 C2.22 -0.01, 3.42 0.34, 3.82 0.34 C4.23 0.34, 4.02 0.3, 4.03 0.33 M3.28 0.13 C4 0, 5.02 0.28, 5.57 0.74 C6.13 1.2, 6.36 2.17, 6.61 2.89 C6.86 3.61, 7.33 4.41, 7.07 5.05 C6.81 5.69, 5.7 6.26, 5.04 6.73 C4.38 7.2, 3.75 7.97, 3.11 7.88 C2.46 7.78, 1.68 6.82, 1.15 6.18 C0.62 5.54, 0 4.88, -0.07 4.06 C-0.14 3.23, 0.17 1.88, 0.74 1.21 C1.32 0.53, 2.99 0.14, 3.37 0 C3.75 -0.14, 3.08 0.3, 3.01 0.37" stroke="none" stroke-width="0" fill="#1e1e1e"></path><path d="M3.03 -0.21 C3.78 -0.3, 4.87 0.36, 5.56 0.83 C6.25 1.29, 6.95 1.88, 7.18 2.56 C7.4 3.25, 7.18 4.14, 6.91 4.91 C6.63 5.69, 6.21 6.78, 5.53 7.23 C4.85 7.68, 3.67 7.8, 2.83 7.61 C1.99 7.42, 0.95 6.78, 0.49 6.08 C0.03 5.38, -0.05 4.16, 0.08 3.4 C0.21 2.63, 0.8 2, 1.27 1.48 C1.74 0.97, 2.57 0.5, 2.92 0.31 C3.26 0.12, 3.23 0.29, 3.33 0.33 M3.56 -0.46 C4.41 -0.44, 5.76 0.63, 6.43 1.21 C7.1 1.8, 7.58 2.33, 7.58 3.08 C7.58 3.82, 6.98 4.98, 6.44 5.7 C5.91 6.42, 5.18 7.25, 4.39 7.4 C3.59 7.55, 2.38 7, 1.68 6.62 C0.98 6.25, 0.48 5.77, 0.2 5.14 C-0.08 4.52, -0.31 3.67, 0 2.88 C0.31 2.08, 1.33 0.83, 2.06 0.36 C2.79 -0.1, 4.03 0.17, 4.39 0.08 C4.75 -0.01, 4.37 -0.27, 4.24 -0.19" stroke="#495057" stroke-width="1" fill="none"></path></g><g stroke-linecap="round" transform="translate(417.37836873728156 67.62974413022039) rotate(0 3.596665895995102 3.729875743994853)"><path d="M3.43 -0.28 C4.17 -0.23, 5.16 0.57, 5.83 1.16 C6.51 1.75, 7.34 2.48, 7.49 3.26 C7.65 4.05, 7.23 5.17, 6.77 5.87 C6.31 6.57, 5.47 7.25, 4.73 7.46 C3.98 7.68, 3.02 7.55, 2.3 7.16 C1.58 6.77, 0.79 5.88, 0.42 5.13 C0.05 4.37, -0.05 3.31, 0.08 2.63 C0.2 1.95, 0.56 1.48, 1.17 1.08 C1.79 0.68, 3.33 0.37, 3.77 0.23 C4.2 0.08, 3.84 0.18, 3.79 0.22 M3.74 0.21 C4.36 0.22, 4.94 0.78, 5.53 1.26 C6.12 1.74, 7.11 2.41, 7.25 3.09 C7.4 3.77, 6.77 4.58, 6.4 5.35 C6.02 6.12, 5.62 7.4, 5 7.72 C4.39 8.05, 3.47 7.62, 2.7 7.33 C1.93 7.04, 0.87 6.69, 0.41 5.97 C-0.06 5.24, -0.29 3.85, -0.08 2.99 C0.13 2.13, 1.03 1.27, 1.64 0.81 C2.25 0.36, 3.27 0.37, 3.58 0.25 C3.89 0.12, 3.51 0.11, 3.48 0.07" stroke="none" stroke-width="0" fill="#1e1e1e"></path><path d="M3.54 0.22 C4.32 0.19, 5.41 0.33, 6.01 0.76 C6.61 1.18, 6.96 1.92, 7.13 2.75 C7.3 3.58, 7.41 4.93, 7.04 5.72 C6.68 6.51, 5.74 7.19, 4.93 7.46 C4.12 7.74, 2.91 7.69, 2.18 7.37 C1.46 7.04, 0.89 6.17, 0.58 5.51 C0.28 4.86, 0.29 4.15, 0.35 3.43 C0.4 2.72, 0.39 1.73, 0.94 1.19 C1.49 0.66, 3.15 0.4, 3.64 0.24 C4.13 0.08, 3.86 0.25, 3.89 0.22 M4.05 0.08 C4.92 0.1, 5.95 0.13, 6.46 0.62 C6.97 1.12, 7.09 2.21, 7.11 3.08 C7.12 3.94, 6.99 5.2, 6.52 5.83 C6.05 6.46, 5.03 6.64, 4.29 6.84 C3.55 7.04, 2.74 7.26, 2.06 7.05 C1.39 6.84, 0.49 6.32, 0.24 5.58 C-0.01 4.84, 0.3 3.39, 0.57 2.6 C0.84 1.8, 1.28 1.28, 1.87 0.8 C2.45 0.32, 3.82 -0.18, 4.08 -0.28 C4.35 -0.37, 3.46 0.19, 3.46 0.23" stroke="#495057" stroke-width="1" fill="none"></path></g><g stroke-linecap="round"><g transform="translate(522.8496837862167 20.246920937280265) rotate(0 66.93147212754138 66.69649194728345)" fill-rule="evenodd"><path d="M1.05 0.49 L-1.3 132.87 L132.65 133.34 L133.35 -1.14 L1.85 -0.4" stroke="none" stroke-width="0" fill="#1971c2" fill-rule="evenodd"></path><path d="M0 0 C-1.8 28.91, -1.3 61.92, -1.22 132.78 M0 0 C-1.6 46.32, -0.67 90.97, -1.22 132.78 M-1.22 132.78 C50.01 131.78, 102.12 134.59, 134.57 133.39 M-1.22 132.78 C27.79 133.46, 55.82 133.47, 134.57 133.39 M134.57 133.39 C132.3 105.77, 134.64 77.76, 135.09 0.29 M134.57 133.39 C134.69 104, 134.29 73.47, 135.09 0.29 M135.09 0.29 C98.25 1.73, 58.95 1.43, 0 0 M135.09 0.29 C92.28 -0.27, 51.51 -1.48, 0 0 M0 0 C0 0, 0 0, 0 0 M0 0 C0 0, 0 0, 0 0" stroke="#000000" stroke-width="2" fill="none"></path></g></g><mask></mask><g stroke-linecap="round"><g transform="translate(590.5337559364261 22.576348794093064) rotate(0 0 65.66189254295068)"><path d="M0 0 C-0.56 39.65, 0.31 76.16, 0 131.32 M0 0 C-0.6 39.64, -0.37 78.26, 0 131.32" stroke="#ffffff" stroke-width="1" fill="none"></path></g></g><mask></mask><g stroke-linecap="round"><g transform="translate(525.1536740910851 92.08965420436925) rotate(0 65.47401874454454 0)"><path d="M0 0 C31.02 -1.36, 60.37 -2.55, 130.95 0 M0 0 C52.1 -0.91, 103.07 0.01, 130.95 0" stroke="#ffffff" stroke-width="1" fill="none"></path></g></g><mask></mask><g stroke-linecap="round"><g transform="translate(555.6495474759313 24.173276080543474) rotate(0 0 65.66189254295068)"><path d="M0 0 C0.56 46.34, 2.4 97.08, 0 131.32 M0 0 C1.32 41.81, 0.59 84.06, 0 131.32" stroke="#ffffff" stroke-width="1" fill="none"></path></g></g><mask></mask><g stroke-linecap="round"><g transform="translate(626.8537170718646 23.23390708851366) rotate(0 0 65.66189254295068)"><path d="M0 0 C1.85 37.11, 0.34 73.67, 0 131.32 M0 0 C0.07 31.18, 1.36 59.65, 0 131.32" stroke="#ffffff" stroke-width="1" fill="none"></path></g></g><mask></mask><g stroke-linecap="round"><g transform="translate(524.3082419982566 123.92983256197112) rotate(0 65.47401874454454 0)"><path d="M0 0 C28.54 0.82, 55.03 0.03, 130.95 0 M0 0 C43.2 -2.09, 85.44 -1.03, 130.95 0" stroke="#ffffff" stroke-width="1" fill="none"></path></g></g><mask></mask><g stroke-linecap="round"><g transform="translate(525.068066462436 52.740670815023805) rotate(0 65.47401874454454 0)"><path d="M0 0 C44.52 -0.28, 92.28 -1.73, 130.95 0 M0 0 C51.88 1.34, 102.74 1.94, 130.95 0" stroke="#ffffff" stroke-width="1" fill="none"></path></g></g><mask></mask><g stroke-linecap="round"><g transform="translate(525.4354847886934 71.25284895535424) rotate(0 65.47401874454454 0)"><path d="M0 0 C49.42 -1.22, 99.72 1.36, 130.95 0" stroke="#ffffff" stroke-width="1.5" fill="none" stroke-dasharray="1.5 7"></path></g></g><mask></mask><g stroke-linecap="round"><g transform="translate(525.4354847886934 106.99566693740599) rotate(0 65.47401874454454 0)"><path d="M0 0 C45.59 2.32, 85.76 2.24, 130.95 0" stroke="#ffffff" stroke-width="1.5" fill="none" stroke-dasharray="1.5 7"></path></g></g><mask></mask><g stroke-linecap="round"><g transform="translate(525.8112323855066 140.06145545688923) rotate(0 65.47401874454454 0)"><path d="M0 0 C32.44 0.55, 68.84 0.23, 130.95 0" stroke="#ffffff" stroke-width="1.5" fill="none" stroke-dasharray="1.5 7"></path></g></g><mask></mask><g stroke-linecap="round"><g transform="translate(524.871863393475 36.542992535098165) rotate(0 65.47401874454454 0)"><path d="M0 0 C51.45 0.28, 103.82 -0.24, 130.95 0" stroke="#ffffff" stroke-width="1.5" fill="none" stroke-dasharray="1.5 7"></path></g></g><mask></mask><g stroke-linecap="round"><g transform="translate(571.8392397169346 24.92477127416805) rotate(0 0 65.66189254295068)"><path d="M0 0 C1.67 51.7, 1.44 99.91, 0 131.32" stroke="#ffffff" stroke-width="1.5" fill="none" stroke-dasharray="1.5 7"></path></g></g><mask></mask><g stroke-linecap="round"><g transform="translate(609.4539764004476 25.112645072576925) rotate(0 0 65.66189254295068)"><path d="M0 0 C2.22 47.04, 1.67 95.85, 0 131.32" stroke="#ffffff" stroke-width="1.5" fill="none" stroke-dasharray="1.5 7"></path></g></g><mask></mask><g stroke-linecap="round"><g transform="translate(640.453153137465 23.421780886918896) rotate(0 0 65.66189254295068)"><path d="M0 0 C1.51 43.66, -1.1 91.55, 0 131.32" stroke="#ffffff" stroke-width="1.5" fill="none" stroke-dasharray="1.5 7"></path></g></g><mask></mask><g stroke-linecap="round"><g transform="translate(537.8740592077047 23.60965468532595) rotate(0 0 65.66189254295068)"><path d="M0 0 C-1.47 29.2, 0.77 58.03, 0 131.32" stroke="#ffffff" stroke-width="1.5" fill="none" stroke-dasharray="1.5 7"></path></g></g><mask></mask><g stroke-linecap="round"><g transform="translate(596.6098039336184 92.04076787216673) rotate(0 -5.858602310760034 0)"><path d="M0 0 C-2.47 0.49, -5.58 -0.05, -11.72 0 M0 0 C-3.2 -0.26, -6.07 -0.06, -11.72 0" stroke="#ffffff" stroke-width="2" fill="none"></path></g></g><mask></mask><g stroke-linecap="round"><g transform="translate(590.7875504263711 85.75779015789522) rotate(0 -0.04476472703299805 6.233960803803711)"><path d="M0 0 C-0.51 4.27, -0.33 8.6, -0.09 12.47 M0 0 C-0.14 3.8, -0.19 7.85, -0.09 12.47" stroke="#ffffff" stroke-width="2" fill="none"></path></g></g><mask></mask><g stroke-linecap="round"><g transform="translate(596.6537530235446 154.14702763598052) rotate(0 -5.858602310760034 0)"><path d="M0 0 C-4.7 -0.11, -8.82 -0.41, -11.72 0 M0 0 C-2.52 0.09, -4.59 -0.17, -11.72 0" stroke="#ffffff" stroke-width="2" fill="none"></path></g></g><mask></mask><g stroke-linecap="round"><g transform="translate(590.8314995162955 147.8640499217081) rotate(0 -0.04476472703299805 3.5044488380040093)"><path d="M0 0 C-0.01 1.85, -0.28 3.97, -0.09 7.01 M0 0 C0.08 1.89, 0.04 3.91, -0.09 7.01" stroke="#ffffff" stroke-width="2" fill="none"></path></g></g><mask></mask><g stroke-linecap="round"><g transform="translate(596.5267989786244 23.166010680690306) rotate(180 -5.858602310760034 0)"><path d="M0 0 C-3.86 -0.17, -6.77 -0.21, -11.72 0 M0 0 C-3.67 0, -7.67 -0.2, -11.72 0" stroke="#ffffff" stroke-width="2" fill="none"></path></g></g><mask></mask><g stroke-linecap="round"><g transform="translate(590.744578434802 22.364116438356177) rotate(180 -0.04476472703299805 3.5044488380040093)"><path d="M0 0 C-0.09 1.56, 0.02 3.47, -0.09 7.01 M0 0 C0.06 1.65, -0.1 3.47, -0.09 7.01" stroke="#ffffff" stroke-width="2" fill="none"></path></g></g><mask></mask><g stroke-linecap="round"><g transform="translate(661.3982860394481 92.17560726159172) rotate(270 -5.858602310760034 0)"><path d="M0 0 C-3.05 0.54, -6.83 0.48, -11.72 0 M0 0 C-3.85 0.05, -7.11 -0.27, -11.72 0" stroke="#ffffff" stroke-width="2" fill="none"></path></g></g><mask></mask><g stroke-linecap="round"><g transform="translate(652.8758377131071 88.5678053796446) rotate(270 -0.04476472703299805 3.5044488380040093)"><path d="M0 0 C-0.14 2.1, -0.01 3.94, -0.09 7.01 M0 0 C0.04 1.61, 0.02 3.4, -0.09 7.01" stroke="#ffffff" stroke-width="2" fill="none"></path></g></g><mask></mask><g stroke-linecap="round"><g transform="translate(530.3681503733378 92.04002442215187) rotate(92.52611691161395 -5.858602310760034 0)"><path d="M0 0 C-4.56 0.38, -9.59 -0.35, -11.72 0 M0 0 C-3.66 -0.08, -7.64 -0.26, -11.72 0" stroke="#ffffff" stroke-width="2" fill="none"></path></g></g><mask></mask><g stroke-linecap="round"><g transform="translate(527.2698742955354 88.55876746273861) rotate(92.52611691161395 -0.04476472703299805 3.5044488380040093)"><path d="M0 0 C-0.16 2.53, 0 5.54, -0.09 7.01 M0 0 C0.03 1.44, -0.1 2.95, -0.09 7.01" stroke="#ffffff" stroke-width="2" fill="none"></path></g></g><mask></mask><g stroke-linecap="round"><g transform="translate(749.5714453196288 18.821071401993322) rotate(0 12.142214055642853 61.52907185244976)"><path d="M0 0 C6.31 8.87, 9.92 16.32, 16.42 20.84 M0 0 C4.13 5.16, 8.69 11.56, 16.42 20.84 M16.42 20.84 C11.13 27.93, 4.31 34.5, -1.48 38.75 M16.42 20.84 C9.64 26.63, 3.92 31.76, -1.48 38.75 M-1.48 38.75 C6.29 49.91, 13.61 60.08, 20.24 65.61 M-1.48 38.75 C5.48 47.26, 11.01 55.72, 20.24 65.61 M20.24 65.61 C11.76 75.01, 7.28 84.42, -2.86 92.85 M20.24 65.61 C12.53 74.35, 6.1 83.12, -2.86 92.85 M-2.86 92.85 C6.1 101.13, 13.63 112.3, 27.14 123.06 M-2.86 92.85 C6.16 100.43, 13.45 109.82, 27.14 123.06" stroke="#fab005" stroke-width="2" fill="none"></path></g></g><mask></mask><g stroke-linecap="round"><g transform="translate(762.9113440284873 18.25341613778528) rotate(0 -3.2262873930176283 62.37562599903367)"><path d="M0 0 C-4.66 6.47, -6.33 10.6, -13.26 21.45 M0 0 C-4 4.16, -5.65 10.62, -13.26 21.45 M-13.26 21.45 C-7.1 27.82, -1.15 32.1, 5.69 39.17 M-13.26 21.45 C-8.53 26.13, -0.97 32.04, 5.69 39.17 M5.69 39.17 C-3.75 50.07, -9.24 61.11, -14.64 67.67 M5.69 39.17 C-1.47 49.06, -6.93 57.34, -14.64 67.67 M-14.64 67.67 C-6.97 74.97, -2.65 79.31, 9.93 92.86 M-14.64 67.67 C-4.76 77.11, 3.76 87.2, 9.93 92.86 M9.93 92.86 C1.41 103.14, -4.87 110.48, -16.39 124.75 M9.93 92.86 C-0.43 104.74, -9.23 115.91, -16.39 124.75" stroke="#fab005" stroke-width="2" fill="none"></path></g></g><mask></mask><g stroke-linecap="round"><g transform="translate(794.7248403043604 -14.69768744022258) rotate(89.99999999999994 -6.141588595850408 63.296058021821864)"><path d="M0 0 C-5.84 9.4, -12.49 16.3, -14.74 23.84 M0 0 C-2.67 5.75, -6.14 10.01, -14.74 23.84 M-14.74 23.84 C-8.8 30.06, -3.79 34.59, 1.24 42.65 M-14.74 23.84 C-9.23 29.35, -4.74 34.79, 1.24 42.65 M1.24 42.65 C-4.76 51.93, -10.28 59.68, -15.96 67.02 M1.24 42.65 C-4.61 51.11, -11.34 58.95, -15.96 67.02 M-15.96 67.02 C-9.47 72.36, -2.4 77.83, 1.57 84 M-15.96 67.02 C-10.92 72.36, -6.13 76.69, 1.57 84 M1.57 84 C-3.44 89.4, -6.13 95.3, -15.47 103.03 M1.57 84 C-2.04 87.69, -5.98 92.73, -15.47 103.03 M-15.47 103.03 C-7.58 109.98, -2.63 120.29, 3.68 126.59 M-15.47 103.03 C-10.29 108.88, -5.34 114.68, 3.68 126.59" stroke="#fab005" stroke-width="2" fill="none"></path></g></g><mask></mask><g stroke-linecap="round"><g transform="translate(781.9546136217923 -15.661468190403866) rotate(89.99999999999994 6.465351504166847 62.267569058917616)"><path d="M0 0 C4.17 6.95, 9.32 14.9, 15.28 22.52 M0 0 C3.85 5.7, 7.88 10.86, 15.28 22.52 M15.28 22.52 C9.68 27.49, 3.8 34.58, -1 42.12 M15.28 22.52 C12.4 26.61, 8.4 30.49, -1 42.12 M-1 42.12 C4.88 49.84, 10.89 55.08, 16.27 64.98 M-1 42.12 C4.92 50.19, 12.4 60.26, 16.27 64.98 M16.27 64.98 C10.81 71.38, 1.92 80.27, -2.79 83.85 M16.27 64.98 C10.48 70.54, 4.87 75.37, -2.79 83.85 M-2.79 83.85 C6.09 91.95, 10.56 96.67, 16.7 102.46 M-2.79 83.85 C3.69 89.86, 10.28 95.81, 16.7 102.46 M16.7 102.46 C7 110.29, 0 117.96, -3.77 124.54 M16.7 102.46 C10.32 109.6, 2.35 117.8, -3.77 124.54" stroke="#fab005" stroke-width="2" fill="none"></path></g></g><mask></mask><g stroke-linecap="round"><g transform="translate(818.4975584146796 55.51300617446486) rotate(0 -47.55075690346166 -19.062664237468198)"><path d="M0 0 C-22.07 -14.56, -41.71 -24.27, -62.48 -38.13 M0 0 C-24.57 -14.8, -49.38 -29.93, -62.48 -38.13 M-62.48 -38.13 C-72.19 -34.59, -83.24 -25.42, -95.1 -19.27 M-62.48 -38.13 C-71.1 -33.91, -80.42 -27.66, -95.1 -19.27" stroke="#495057" stroke-width="2" fill="none"></path></g></g><mask></mask><g stroke-linecap="round"><g transform="translate(744.1787203096646 157.61278350054454) rotate(0 2.128707240775384 -69.53776986532785)"><path d="M0 0 C1.17 -31.42, 5.32 -64.86, 4.26 -139.08 M0 0 C1.43 -47.3, 2.33 -95.04, 4.26 -139.08" stroke="#f08c00" stroke-width="4" fill="none"></path></g></g><mask></mask><g stroke-linecap="round"><g transform="translate(763.4789992926953 18.537243769889756) rotate(0 7.399518220392565 69.29202648851378)"><path d="M0 0 C4.36 29.87, 6.4 60.41, 14.8 138.58 M0 0 C5.36 43.77, 9.11 87.46, 14.8 138.58" stroke="#f08c00" stroke-width="4" fill="none"></path></g></g><mask></mask><g stroke-linecap="round"><g transform="translate(786.4564572922209 -6.930355627846438) rotate(89.99999999999994 1.8313359342769218 63.58803487834848)"><path d="M0 0 C3.39 45.57, 4.16 90.62, 3.66 127.18 M0 0 C0.18 41.27, 1.46 81.87, 3.66 127.18" stroke="#f08c00" stroke-width="4" fill="none"></path></g></g><mask></mask><g stroke-linecap="round"><g transform="translate(785.7775332848541 102.19950554290881) rotate(89.99999999999994 1.7891839306466863 -63.90168291718646)"><path d="M0 0 C0.87 -37.9, 2.14 -77.96, 3.58 -127.8 M0 0 C1.45 -39.6, 4.33 -77.98, 3.58 -127.8" stroke="#f08c00" stroke-width="4" fill="none"></path></g></g><mask></mask><g stroke-linecap="round"><g transform="translate(815.1733536861293 60.061292746166146) rotate(0 1.71042467334928 18.47258647217177)"><path d="M0 0 C1.44 12.48, 2.39 24.09, 3.42 36.95 M0 0 C1.32 10.9, 2.2 21.81, 3.42 36.95" stroke="#495057" stroke-width="2" fill="none"></path></g></g><mask></mask><g stroke-linecap="round"><g transform="translate(824.1815902991029 60.17532105772261) rotate(0 0.057014155778233544 18.301544004837524)"><path d="M0 0 C0.13 11.93, 0.1 24.92, 0.11 36.6 M0 0 C0.53 8.19, 0.41 16.26, 0.11 36.6" stroke="#495057" stroke-width="2" fill="none"></path></g></g><mask></mask><g stroke-linecap="round"><g transform="translate(810.6947151195463 56.11742354236594) rotate(0 9.18123989892274 2.203664898112038)" fill-rule="evenodd"><path d="M0.16 -0.89 L18.59 -1.07 L19.07 4.64 L-0.02 3.75 L0.18 0.03" stroke="none" stroke-width="0" fill="#846358" fill-rule="evenodd"></path><path d="M0 0 C5.4 -0.92, 10.2 0.51, 18.31 -0.71 M0 0 C5.3 -0.6, 10.33 -0.35, 18.31 -0.71 M18.31 -0.71 C18.46 1.1, 18.57 3.43, 18.36 5.12 M18.31 -0.71 C18.36 1.17, 18.42 2.8, 18.36 5.12 M18.36 5.12 C13.17 5.58, 8.16 4.81, 0.69 4.72 M18.36 5.12 C12.04 4.69, 6.37 4.76, 0.69 4.72 M0.69 4.72 C0.28 3.1, 0.27 1.89, 0 0 M0.69 4.72 C0.62 3.63, 0.46 2.53, 0 0 M0 0 C0 0, 0 0, 0 0 M0 0 C0 0, 0 0, 0 0" stroke="transparent" stroke-width="1" fill="none"></path></g></g><mask></mask><g stroke-linecap="round"><g transform="translate(815.4327533825035 99.96426285199595) rotate(0 4.692702017659485 11.071499176370253)" fill-rule="evenodd"><path d="M0.38 -0.49 L0.51 5.37 L-3.38 10.25 L-3.44 18.91 L1.98 21.01 L11.86 21.8 L13.61 17.27 L8.39 19.87 L2.45 18.52 L0.4 16.53 L-1.02 10.96 L3.24 8.61 L8.83 8.41 L9.46 0.69 L-0.75 -0.79" stroke="none" stroke-width="0" fill="#868e96" fill-rule="evenodd"></path><path d="M0 0 C-0.15 1.33, 0.02 2.35, 0.19 5.32 M0.19 5.32 C-0.92 6.51, -2.01 7.77, -4.27 9.87 M-4.27 9.87 C-3.8 12.6, -3.97 14.9, -3.83 17.99 M-3.83 17.99 C-2.18 19, -1.07 20.18, 1.8 21.91 M1.8 21.91 C4.37 21.91, 7.28 21.88, 11.41 22.14 M11.41 22.14 C12.35 20.36, 12.8 18.91, 13.66 16.36 M13.66 16.36 C11.91 17.34, 9.93 18.22, 8.63 18.9 M8.63 18.9 C7.26 18.87, 5.19 18.45, 3.43 18.54 M3.43 18.54 C2.5 17.96, 1.37 17.31, -0.31 16.11 M-0.31 16.11 C-0.19 14.81, -0.3 13.55, -0.38 11.65 M-0.38 11.65 C0.43 10.33, 1.24 9.38, 2.42 8.14 M2.42 8.14 C4.53 8.06, 6.32 8.05, 8.8 7.61 M8.8 7.61 C8.87 4.98, 8.53 2.11, 8.72 0.23 M8.72 0.23 C6.22 0.26, 3.69 0.29, 0 0 M0 0 C0 0, 0 0, 0 0" stroke="transparent" stroke-width="1.5" fill="none" stroke-dasharray="1.5 7"></path></g></g><mask></mask><g stroke-linecap="round"><g transform="translate(809.8100730227134 83.22303421929519) rotate(0 9.793497772560386 8.274915539419908)" fill-rule="evenodd"><path d="M0.7 -0.48 L18.87 -1.77 L17.38 17.38 L3.35 16.74 L0.55 0.21" stroke="none" stroke-width="0" fill="#846358" fill-rule="evenodd"></path><path d="M0 0 C3.98 0.38, 8.01 -0.06, 19.59 -0.81 M0 0 C4.26 -0.08, 8.15 -0.13, 19.59 -0.81 M19.59 -0.81 C19.11 2.67, 18.12 7.62, 17.2 17.36 M19.59 -0.81 C18.64 6.76, 17.63 13.54, 17.2 17.36 M17.2 17.36 C12.4 17.07, 6.92 16.9, 3.25 17.07 M17.2 17.36 C13.95 17.54, 10.81 16.95, 3.25 17.07 M3.25 17.07 C1.92 13.36, 1.78 9.82, 0 0 M3.25 17.07 C1.73 11.21, 0.98 5.95, 0 0 M0 0 C0 0, 0 0, 0 0 M0 0 C0 0, 0 0, 0 0" stroke="transparent" stroke-width="1" fill="none"></path></g></g><mask></mask><g stroke-linecap="round"><g transform="translate(785.5037887049521 126.06230976758161) rotate(0 39.57528396939324 5.683937638670159)" fill-rule="evenodd"><path d="M1.59 1.47 L79.82 -1.87 L71.19 3.28 L73.75 9.63 L79.52 11.97 L0.19 11.14 L5.26 9.5 L6.02 4.72 L1.58 0.94" stroke="none" stroke-width="0" fill="#e03131" fill-rule="evenodd"></path><path d="M0 0 C30.27 0.1, 60.03 -0.42, 78.91 -0.36 M0 0 C24.12 0.17, 46.95 0.4, 78.91 -0.36 M78.91 -0.36 C76.58 0.91, 75.63 2.17, 72.78 2.88 M78.91 -0.36 C76.85 0.67, 75.22 1.72, 72.78 2.88 M72.78 2.88 C72.75 4.47, 72.3 6.96, 72.59 8.99 M72.78 2.88 C72.89 4.38, 72.47 6.37, 72.59 8.99 M72.59 8.99 C74.84 10.48, 77.16 11.45, 79.15 11.73 M72.59 8.99 C74.61 9.79, 76.6 10.98, 79.15 11.73 M79.15 11.73 C51.32 11.07, 25.57 13.23, 0.35 11.73 M79.15 11.73 C59.92 10.67, 40.83 10.55, 0.35 11.73 M0.35 11.73 C1.41 11.04, 2.22 10.55, 4.76 8.52 M0.35 11.73 C1.93 10.88, 3.06 9.74, 4.76 8.52 M4.76 8.52 C4.94 6.52, 4.69 5.1, 5.15 2.76 M4.76 8.52 C5.02 6.83, 4.81 4.75, 5.15 2.76 M5.15 2.76 C3.78 1.59, 2.16 1.05, 0 0 M5.15 2.76 C3.41 1.76, 0.87 0.76, 0 0 M0 0 C0 0, 0 0, 0 0 M0 0 C0 0, 0 0, 0 0" stroke="transparent" stroke-width="1" fill="none"></path></g></g><mask></mask><g stroke-linecap="round" transform="translate(790.2513425241541 128.61744218665535) rotate(0 33.9039509575955 3.176131325339611)"><path d="M0.48 -0.35 L67.29 0.34 L68.37 5.83 L0.16 5.46" stroke="none" stroke-width="0" fill="#fa5252"></path><path d="M0 0 C23.87 0.06, 49.66 0.37, 67.81 0 M0 0 C21.15 0.23, 43.18 -0.15, 67.81 0 M67.81 0 C68.1 1.74, 67.86 2.99, 67.81 6.35 M67.81 0 C67.91 2.38, 67.79 4.87, 67.81 6.35 M67.81 6.35 C48.55 7.04, 30.41 6.34, 0 6.35 M67.81 6.35 C42.07 6.17, 17.2 5.78, 0 6.35 M0 6.35 C0.06 4.53, 0.08 1.84, 0 0 M0 6.35 C-0.11 5.09, 0.08 3.68, 0 0" stroke="transparent" stroke-width="1" fill="none"></path></g><g stroke-linecap="round"><g transform="translate(818.5835183295321 117.84937733794322) rotate(0 -8.462439424044987 9.959197417413634)"><path d="M0 0 C-5.8 7.25, -11.37 13.75, -16.92 19.92 M0 0 C-5.76 6.87, -11.97 13.44, -16.92 19.92" stroke="#495057" stroke-width="2" fill="none"></path></g></g><mask></mask><g stroke-linecap="round"><g transform="translate(823.3040627701557 118.42505348923896) rotate(0 10.880279259486542 9.959197417413634)"><path d="M0 0 C7.13 6.56, 14.33 11.9, 21.76 19.92 M0 0 C7.89 7.23, 16.55 15.45, 21.76 19.92" stroke="#495057" stroke-width="2" fill="none"></path></g></g><mask></mask><g stroke-linecap="round"><g transform="translate(102.83975975077647 82.8205871842465) rotate(0 23.471533052806535 -0.0019656599411064235)"><path d="M0.14 0.23 C7.85 0.28, 38.69 0.45, 46.52 0.41 M-0.45 -0.12 C7.4 -0.23, 39.66 -0.46, 47.53 -0.34" stroke="#495057" stroke-width="2" fill="none"></path></g><g transform="translate(102.83975975077647 82.8205871842465) rotate(0 23.471533052806535 -0.0019656599411064235)"><path d="M25.46 7.64 C33.59 4.04, 41.65 2.25, 47.53 -0.34 M25.46 7.64 C32.26 5.8, 39 3.04, 47.53 -0.34" stroke="#495057" stroke-width="2" fill="none"></path></g><g transform="translate(102.83975975077647 82.8205871842465) rotate(0 23.471533052806535 -0.0019656599411064235)"><path d="M25.49 -8.41 C33.63 -6.4, 41.67 -2.57, 47.53 -0.34 M25.49 -8.41 C32.23 -5.46, 38.96 -3.44, 47.53 -0.34" stroke="#495057" stroke-width="2" fill="none"></path></g></g><mask></mask><g stroke-linecap="round"><g transform="translate(284.1203651580872 82.51575485068588) rotate(0 21.490947102716746 -0.005581835289831361)"><path d="M-0.43 0.42 C6.73 0.37, 35.93 0.1, 43.11 -0.02 M0.35 0.15 C7.44 0.18, 35.5 0.67, 42.74 0.67" stroke="#495057" stroke-width="2" fill="none"></path></g><g transform="translate(284.1203651580872 82.51575485068588) rotate(0 21.490947102716746 -0.005581835289831361)"><path d="M22.47 7.83 C29.8 5.8, 35.62 2.64, 42.74 0.67 M22.47 7.83 C27.85 6.05, 32.47 4.56, 42.74 0.67" stroke="#495057" stroke-width="2" fill="none"></path></g><g transform="translate(284.1203651580872 82.51575485068588) rotate(0 21.490947102716746 -0.005581835289831361)"><path d="M22.62 -6.87 C29.93 -4.12, 35.7 -2.5, 42.74 0.67 M22.62 -6.87 C27.98 -4.99, 32.57 -2.83, 42.74 0.67" stroke="#495057" stroke-width="2" fill="none"></path></g></g><mask></mask><g stroke-linecap="round"><g transform="translate(468.1540235237135 83.34791080854848) rotate(0 23.667841619236242 -0.3597524182437155)"><path d="M0.12 -0.01 C8.03 -0.25, 39.09 -0.97, 47 -1 M-0.48 -0.49 C7.64 -0.69, 40.09 -0.37, 48.06 -0.45" stroke="#495057" stroke-width="2" fill="none"></path></g><g transform="translate(468.1540235237135 83.34791080854848) rotate(0 23.667841619236242 -0.3597524182437155)"><path d="M25.81 7.63 C30.7 5.19, 35.15 4.4, 48.06 -0.45 M25.81 7.63 C34.54 4.79, 43.31 1.12, 48.06 -0.45" stroke="#495057" stroke-width="2" fill="none"></path></g><g transform="translate(468.1540235237135 83.34791080854848) rotate(0 23.667841619236242 -0.3597524182437155)"><path d="M25.82 -8.56 C30.78 -7.4, 35.22 -4.6, 48.06 -0.45 M25.82 -8.56 C34.61 -4.98, 43.37 -2.22, 48.06 -0.45" stroke="#495057" stroke-width="2" fill="none"></path></g></g><mask></mask><g stroke-linecap="round"><g transform="translate(665.9041695922842 82.52054688039607) rotate(0 32.935228755748085 0)"><path d="M0 0 C20.22 1.17, 44.43 1.79, 65.87 0 M0 0 C20.81 -0.66, 42.84 -0.61, 65.87 0" stroke="#495057" stroke-width="2" fill="none"></path></g><g transform="translate(665.9041695922842 82.52054688039607) rotate(0 32.935228755748085 0)"><path d="M42.22 8.1 C48.82 6.39, 59.41 4.41, 65.87 0 M42.22 8.1 C49.52 5.17, 58.05 2.63, 65.87 0" stroke="#495057" stroke-width="2" fill="none"></path></g><g transform="translate(665.9041695922842 82.52054688039607) rotate(0 32.935228755748085 0)"><path d="M42.55 -9 C49.04 -5.19, 59.53 -1.67, 65.87 0 M42.55 -9 C49.72 -6.46, 58.15 -3.52, 65.87 0" stroke="#495057" stroke-width="2" fill="none"></path></g></g><mask></mask></svg>