<?xml version="1.0" standalone="no"?>
<!DOCTYPE svg PUBLIC "-//W3C//DTD SVG 1.1//EN" "http://www.w3.org/Graphics/SVG/1.1/DTD/svg11.dtd">
<svg version="1.1" xmlns="http://www.w3.org/2000/svg" viewBox="0 0 827.6541428482042 212.51789029039355" width="827.6541428482042" height="212.51789029039355"><!-- svg-source:excalidraw --><metadata></metadata><defs><style class="style-fonts">
      </style></defs><g stroke-linecap="round"><g transform="translate(12.721736256797158 201.9082035915053) rotate(0 78.20341088592204 -95.1027749212185)" fill-rule="evenodd"><path d="M-0.82 1.36 L158.91 -1.35 L157.62 -190.38 L-1.27 -191.62 L-1.12 -0.93" stroke="none" stroke-width="0" fill="#ffffff" fill-rule="evenodd"></path><path d="M0 0 C34.68 -2.38, 70.19 0.15, 157.12 -1.27 M0 0 C47.38 -1.26, 96.34 -0.8, 157.12 -1.27 M157.12 -1.27 C157.1 -50.31, 158.72 -95.28, 157.12 -190.21 M157.12 -1.27 C156.81 -62.74, 156.42 -122.87, 157.12 -190.21 M157.12 -190.21 C97.59 -191.5, 41.89 -191.81, -0.72 -190.21 M157.12 -190.21 C115.42 -189.28, 74.08 -187.79, -0.72 -190.21 M-0.72 -190.21 C-3.16 -135.03, -3.86 -80.96, 0 0 M-0.72 -190.21 C-1.01 -134.92, -1.64 -79.04, 0 0 M0 0 C0 0, 0 0, 0 0 M0 0 C0 0, 0 0, 0 0" stroke="#495057" stroke-width="2" fill="none"></path></g></g><mask></mask><g stroke-linecap="round"><g transform="translate(122.64315841452026 63.65937925212711) rotate(0 10.927312619770419 -4.442520283983868)" fill-rule="evenodd"><path d="M0.42 0.03 L-12.6 -1.7 L-8.57 -9.38 L-19.58 -13.11 L-10.04 -24.85 L-20.71 -30.23 L-9.73 -32.9 L-12.16 -43.02 L0.84 -42.09 L1.56 -49.41 L8.27 -46.17 L16.85 -53.59 L20.5 -42.7 L33.35 -48.06 L31.9 -35.75 L40.12 -32.91 L36.14 -24.95 L42.45 -15.59 L32.71 -14.14 L40.43 -1.22 L26.86 -1.37 L35.4 37.13 L27.16 32.35 L24 41.97 L15.08 2.83 L-0.42 40.97 L-2.32 29 L-16.24 38.33 L1.7 1.22" stroke="none" stroke-width="0" fill="#ffd43b" fill-rule="evenodd"></path><path d="M0 0 C-2.88 -1.05, -4.29 0.9, -11.56 -0.09 M0 0 C-2.39 0.2, -5.5 -0.09, -11.56 -0.09 M-11.56 -0.09 C-9.66 -3.36, -9.4 -9.47, -7.47 -11.26 M-11.56 -0.09 C-9.62 -4.4, -8.49 -7.1, -7.47 -11.26 M-7.47 -11.26 C-12.12 -12, -17.13 -14.04, -19.53 -14.99 M-7.47 -11.26 C-10.75 -12.76, -13.43 -12.62, -19.53 -14.99 M-19.53 -14.99 C-16.72 -18.93, -13.13 -20.49, -11.55 -22.92 M-19.53 -14.99 C-16.38 -18.19, -12.78 -20.71, -11.55 -22.92 M-11.55 -22.92 C-13.23 -24.21, -14.23 -27.01, -19.89 -31.21 M-11.55 -22.92 C-14.52 -25.34, -17.11 -27.98, -19.89 -31.21 M-19.89 -31.21 C-16.7 -32.33, -14.38 -31.91, -8.92 -33.46 M-19.89 -31.21 C-17.41 -32.19, -14.54 -32.27, -8.92 -33.46 M-8.92 -33.46 C-8.81 -37.77, -10.98 -39.98, -10.92 -43.75 M-8.92 -33.46 C-10.07 -36.82, -10.51 -41.18, -10.92 -43.75 M-10.92 -43.75 C-7.86 -42.64, -4.86 -42.01, 0.2 -42.06 M-10.92 -43.75 C-7.85 -42.8, -4.27 -42.95, 0.2 -42.06 M0.2 -42.06 C1.08 -44.25, -0.55 -45.5, 0.07 -51.29 M0.2 -42.06 C-0.12 -45.17, -0.23 -47.98, 0.07 -51.29 M0.07 -51.29 C2.6 -50.57, 3.76 -48.24, 9.91 -45.87 M0.07 -51.29 C1.85 -50.06, 4.41 -48.46, 9.91 -45.87 M9.91 -45.87 C11.47 -48.08, 13.91 -50.54, 15.79 -52.51 M9.91 -45.87 C11.89 -48.04, 14.61 -51.44, 15.79 -52.51 M15.79 -52.51 C17.2 -51.1, 19.26 -47.8, 21.86 -44.53 M15.79 -52.51 C18.17 -49.77, 19.94 -47.55, 21.86 -44.53 M21.86 -44.53 C23.45 -45.53, 26.16 -45.56, 33.5 -46.12 M21.86 -44.53 C24.76 -44.35, 27.61 -45.76, 33.5 -46.12 M33.5 -46.12 C32.5 -43.09, 32.07 -41.29, 32.38 -36.92 M33.5 -46.12 C32.97 -43.01, 33.01 -40.63, 32.38 -36.92 M32.38 -36.92 C34.55 -36.1, 36.48 -34.69, 41.06 -32.11 M32.38 -36.92 C34.75 -35.95, 37.57 -34.56, 41.06 -32.11 M41.06 -32.11 C38.58 -29.64, 37.03 -26.61, 35.28 -24.18 M41.06 -32.11 C40.07 -30.14, 38.62 -28.16, 35.28 -24.18 M35.28 -24.18 C38.05 -21.33, 40.4 -18.68, 41.75 -17.57 M35.28 -24.18 C37.05 -22.27, 39.02 -20.61, 41.75 -17.57 M41.75 -17.57 C39.03 -16.53, 36.44 -13.53, 34.45 -12.42 M41.75 -17.57 C38.99 -15.67, 36.92 -13.58, 34.45 -12.42 M34.45 -12.42 C34.33 -9.54, 35.81 -8.13, 38.93 -0.97 M34.45 -12.42 C35.86 -9.03, 37.96 -4.8, 38.93 -0.97 M38.93 -0.97 C35.38 -2.28, 34.15 -1.7, 25.73 -0.66 M38.93 -0.97 C34.44 -0.48, 29.41 -0.18, 25.73 -0.66 M25.73 -0.66 C29.32 10.92, 32.03 20.06, 36.38 35.52 M25.73 -0.66 C27.74 9.04, 31.84 19.4, 36.38 35.52 M36.38 35.52 C34.99 34.1, 33.04 34.56, 28.51 32.43 M36.38 35.52 C34.49 35.12, 32.05 33.76, 28.51 32.43 M28.51 32.43 C25.06 37.43, 22.76 40.28, 22.42 43.63 M28.51 32.43 C26.63 35.11, 25.31 37.78, 22.42 43.63 M22.42 43.63 C20.78 30.35, 18.35 20.58, 13.28 2.25 M22.42 43.63 C18.85 32.87, 16.77 20.62, 13.28 2.25 M13.28 2.25 C6.93 16.49, 2.37 32.03, 1.3 40.52 M13.28 2.25 C8.33 16.24, 3.43 31.79, 1.3 40.52 M1.3 40.52 C0.82 37.06, -1.81 34.9, -3.63 30.59 M1.3 40.52 C-0.27 38.97, -0.76 36.8, -3.63 30.59 M-3.63 30.59 C-6.39 31.9, -11.91 34.44, -17.24 38.16 M-3.63 30.59 C-7.08 32.36, -11.1 34.21, -17.24 38.16 M-17.24 38.16 C-13.66 30.17, -9.37 19.85, 0 0 M-17.24 38.16 C-11.86 27.77, -8.58 18.84, 0 0 M0 0 C0 0, 0 0, 0 0 M0 0 C0 0, 0 0, 0 0" stroke="#495057" stroke-width="2" fill="none"></path></g></g><mask></mask><g stroke-linecap="round" transform="translate(112.06258258809521 18.799338539494784) rotate(0 22.446570386750864 22.446570386750864)"><path d="M19.38 0.38 C23.92 -0.42, 30.7 1.09, 34.73 3.6 C38.76 6.11, 42.15 10.86, 43.57 15.43 C44.98 20, 45 26.5, 43.2 31.03 C41.4 35.57, 37.02 40.39, 32.77 42.64 C28.51 44.9, 22.39 45.72, 17.66 44.54 C12.93 43.37, 7.36 39.47, 4.4 35.61 C1.45 31.75, -0.32 26.09, -0.05 21.36 C0.21 16.62, 2.52 10.8, 5.99 7.21 C9.46 3.61, 18.08 0.93, 20.78 -0.21 C23.47 -1.36, 22.11 -0.01, 22.16 0.34 M26.37 0.2 C30.98 0.53, 36.95 4.22, 39.99 7.81 C43.03 11.41, 44.73 17.07, 44.61 21.77 C44.49 26.47, 42.18 32.36, 39.25 36.03 C36.31 39.69, 31.69 42.84, 27 43.77 C22.31 44.69, 15.27 43.64, 11.1 41.57 C6.93 39.5, 3.73 35.81, 1.98 31.36 C0.24 26.91, -0.83 19.54, 0.63 14.87 C2.1 10.2, 6.63 5.81, 10.75 3.34 C14.87 0.88, 22.94 0.61, 25.35 0.09 C27.77 -0.44, 25.34 -0.28, 25.25 0.19" stroke="none" stroke-width="0" fill="#40c057"></path><path d="M23.17 -0.08 C27.71 -0.36, 33.37 2.23, 37 5.34 C40.63 8.45, 44.21 13.75, 44.93 18.57 C45.65 23.4, 43.88 30.07, 41.31 34.29 C38.73 38.5, 33.89 42.36, 29.48 43.85 C25.07 45.35, 19.2 45.01, 14.83 43.24 C10.46 41.47, 5.66 37.44, 3.28 33.23 C0.9 29.01, -0.37 22.69, 0.56 17.96 C1.48 13.23, 5.05 7.87, 8.83 4.85 C12.62 1.83, 20.7 0.56, 23.25 -0.14 C25.81 -0.84, 24.15 0.17, 24.17 0.65 M25.27 -0.49 C29.8 -0.18, 35.31 3.91, 38.49 7.59 C41.67 11.27, 43.99 16.68, 44.37 21.58 C44.75 26.48, 43.74 33.23, 40.76 36.99 C37.78 40.75, 31.2 43.17, 26.48 44.13 C21.76 45.09, 16.58 45.02, 12.44 42.76 C8.31 40.5, 3.56 35.08, 1.69 30.58 C-0.18 26.07, -0.2 20.15, 1.22 15.71 C2.65 11.26, 6.09 6.41, 10.23 3.88 C14.37 1.36, 23.4 1.19, 26.07 0.58 C28.74 -0.04, 26.47 -0.15, 26.25 0.22" stroke="#495057" stroke-width="2" fill="none"></path></g><g stroke-linecap="round"><g transform="translate(335.7734109625344 201.10947858979125) rotate(0 78.20341088592204 -95.1027749212185)" fill-rule="evenodd"><path d="M-1.06 1.44 L156.26 -1.67 L157.3 -191.58 L0.43 -189.01 L-1.03 1.61" stroke="none" stroke-width="0" fill="#ffffff" fill-rule="evenodd"></path><path d="M0 0 C56.96 2.76, 111.76 0.99, 157.12 -1.27 M0 0 C52.34 -1.01, 107.1 -1.15, 157.12 -1.27 M157.12 -1.27 C154.53 -47.54, 157.41 -90.51, 157.12 -190.21 M157.12 -1.27 C158.92 -69.3, 158.81 -138.29, 157.12 -190.21 M157.12 -190.21 C100.52 -191.1, 47.83 -191.69, -0.72 -190.21 M157.12 -190.21 C110.42 -189.89, 62.28 -190.45, -0.72 -190.21 M-0.72 -190.21 C0.22 -114.16, -2.81 -40.41, 0 0 M-0.72 -190.21 C-2.07 -144.92, -1.35 -98.45, 0 0 M0 0 C0 0, 0 0, 0 0 M0 0 C0 0, 0 0, 0 0" stroke="#495057" stroke-width="2" fill="none"></path></g></g><mask></mask><g stroke-linecap="round"><g transform="translate(445.6948331202584 62.86065425041306) rotate(0 10.927312619770419 -4.442520283983868)" fill-rule="evenodd"><path d="M0.39 -1.57 L-12.46 1.62 L-8.32 -12.99 L-20.74 -15.12 L-10.38 -23.12 L-18.98 -31.85 L-8.2 -33.2 L-9.06 -44.68 L1 -42.41 L-0.2 -51.67 L9.05 -47.1 L16.15 -51.04 L20.01 -43.34 L32.77 -47.29 L31.38 -37.66 L40.8 -30.43 L34.85 -24.07 L40.5 -15.76 L34.87 -12.73 L39.93 -2.2 L24.62 0.01 L37.28 37.44 L27.49 30.96 L23.03 43.98 L14.73 1.79 L1.25 41.5 L-1.85 29.34 L-18.73 36.66 L0.13 1.96" stroke="none" stroke-width="0" fill="#ffec99" fill-rule="evenodd"></path><path d="M0 0 C-3.43 0.37, -4.39 0.57, -11.56 -0.09 M0 0 C-3.03 -0.29, -7.25 0.28, -11.56 -0.09 M-11.56 -0.09 C-9.47 -2.67, -8.64 -6.82, -7.47 -11.26 M-11.56 -0.09 C-10.26 -3.67, -8.78 -7.02, -7.47 -11.26 M-7.47 -11.26 C-9.84 -12.05, -12.51 -12.49, -19.53 -14.99 M-7.47 -11.26 C-11.37 -12.35, -13.87 -13.8, -19.53 -14.99 M-19.53 -14.99 C-17.91 -18.52, -15.34 -21.02, -11.55 -22.92 M-19.53 -14.99 C-16.67 -16.85, -14.56 -19.49, -11.55 -22.92 M-11.55 -22.92 C-14.34 -26.1, -15.16 -27.06, -19.89 -31.21 M-11.55 -22.92 C-13.39 -25.14, -15.41 -26.06, -19.89 -31.21 M-19.89 -31.21 C-17.84 -31.16, -13.58 -32.95, -8.92 -33.46 M-19.89 -31.21 C-15.84 -32.01, -11.37 -33.3, -8.92 -33.46 M-8.92 -33.46 C-9.37 -35.48, -9.18 -37.49, -10.92 -43.75 M-8.92 -33.46 C-9.69 -37.88, -10.82 -41.25, -10.92 -43.75 M-10.92 -43.75 C-6.44 -43.07, -1.4 -42.93, 0.2 -42.06 M-10.92 -43.75 C-7 -43.1, -4.33 -42.94, 0.2 -42.06 M0.2 -42.06 C-0.38 -44.81, 0.35 -48.87, 0.07 -51.29 M0.2 -42.06 C-0.26 -44.07, -0.19 -46.96, 0.07 -51.29 M0.07 -51.29 C2.15 -48.81, 5.84 -46.97, 9.91 -45.87 M0.07 -51.29 C2.64 -49.47, 4.13 -48.52, 9.91 -45.87 M9.91 -45.87 C11.37 -49.21, 13.94 -50.48, 15.79 -52.51 M9.91 -45.87 C11.38 -47.24, 12.76 -48.86, 15.79 -52.51 M15.79 -52.51 C16.41 -50.54, 18.78 -49.61, 21.86 -44.53 M15.79 -52.51 C16.86 -50.9, 19.03 -48.52, 21.86 -44.53 M21.86 -44.53 C26.02 -44, 28.81 -45.53, 33.5 -46.12 M21.86 -44.53 C24.91 -44.69, 26.75 -45.7, 33.5 -46.12 M33.5 -46.12 C33.4 -42.51, 33.27 -41.19, 32.38 -36.92 M33.5 -46.12 C32.77 -43.4, 32.91 -40.99, 32.38 -36.92 M32.38 -36.92 C36.52 -35.35, 38.37 -33.26, 41.06 -32.11 M32.38 -36.92 C35.35 -35.13, 37.66 -33.55, 41.06 -32.11 M41.06 -32.11 C40.3 -30.87, 37.71 -27.57, 35.28 -24.18 M41.06 -32.11 C39.87 -30.65, 38.9 -28.55, 35.28 -24.18 M35.28 -24.18 C37.41 -22.91, 38.35 -20.57, 41.75 -17.57 M35.28 -24.18 C37.33 -22.2, 38.62 -20.49, 41.75 -17.57 M41.75 -17.57 C38.54 -15.76, 35.31 -13.59, 34.45 -12.42 M41.75 -17.57 C39.4 -16.11, 36.7 -14.61, 34.45 -12.42 M34.45 -12.42 C35.67 -7.6, 36.39 -5.57, 38.93 -0.97 M34.45 -12.42 C36.11 -9.33, 37.14 -5.41, 38.93 -0.97 M38.93 -0.97 C35.37 -0.99, 33 -1.25, 25.73 -0.66 M38.93 -0.97 C34.62 -0.46, 29.84 -1.16, 25.73 -0.66 M25.73 -0.66 C27.46 6.21, 32.38 12.44, 36.38 35.52 M25.73 -0.66 C28.32 6.94, 29.84 15.37, 36.38 35.52 M36.38 35.52 C33.1 35.12, 29.55 33.33, 28.51 32.43 M36.38 35.52 C33.75 34.72, 31.41 33.49, 28.51 32.43 M28.51 32.43 C26.41 35.82, 25.56 36.33, 22.42 43.63 M28.51 32.43 C26 35.52, 24.78 38.54, 22.42 43.63 M22.42 43.63 C20.66 32.3, 16.96 23.76, 13.28 2.25 M22.42 43.63 C19.28 33.46, 18.08 22.16, 13.28 2.25 M13.28 2.25 C9.75 16.15, 3.37 31.28, 1.3 40.52 M13.28 2.25 C10.35 11.89, 6.6 23.53, 1.3 40.52 M1.3 40.52 C-0.29 38.5, -0.81 35.8, -3.63 30.59 M1.3 40.52 C0.51 37.71, -1.38 35.24, -3.63 30.59 M-3.63 30.59 C-7.65 32.21, -10.52 34.38, -17.24 38.16 M-3.63 30.59 C-7.75 32.35, -10.77 34.92, -17.24 38.16 M-17.24 38.16 C-11.18 25.97, -6.47 14.25, 0 0 M-17.24 38.16 C-11.37 25.4, -4.97 13.88, 0 0 M0 0 C0 0, 0 0, 0 0 M0 0 C0 0, 0 0, 0 0" stroke="#495057" stroke-width="2" fill="none"></path></g></g><mask></mask><g stroke-linecap="round" transform="translate(435.11425729383336 18.000613537780737) rotate(0 22.446570386750864 22.446570386750864)"><path d="M23.93 0.03 C28.52 0.06, 34.39 2.9, 37.93 6.26 C41.47 9.62, 44.69 15.37, 45.16 20.21 C45.64 25.05, 43.64 31.28, 40.77 35.31 C37.91 39.34, 32.55 43.19, 27.98 44.4 C23.4 45.61, 17.56 44.59, 13.32 42.56 C9.08 40.54, 4.7 36.57, 2.53 32.25 C0.36 27.92, -0.86 21.27, 0.3 16.6 C1.46 11.94, 5.4 7.08, 9.48 4.26 C13.56 1.44, 22.08 0.34, 24.78 -0.3 C27.47 -0.95, 25.64 -0.06, 25.65 0.4 M24.79 0.74 C29.33 0.78, 35.48 3.01, 38.73 6.48 C41.99 9.95, 43.93 16.65, 44.34 21.57 C44.75 26.49, 43.92 32.22, 41.2 36 C38.48 39.79, 32.82 43.15, 28.03 44.31 C23.23 45.46, 16.84 45.06, 12.42 42.93 C8.01 40.79, 3.54 36.05, 1.53 31.5 C-0.48 26.94, -1.12 20.22, 0.39 15.6 C1.9 10.98, 6.61 6.4, 10.6 3.75 C14.59 1.1, 21.85 0.3, 24.35 -0.29 C26.84 -0.88, 25.58 -0.14, 25.57 0.22" stroke="none" stroke-width="0" fill="#40c057"></path><path d="M24.59 0.49 C29.14 0.73, 35.07 3.24, 38.5 6.62 C41.94 10, 44.91 15.98, 45.2 20.78 C45.48 25.57, 43.06 31.44, 40.23 35.37 C37.39 39.3, 32.75 43.23, 28.18 44.36 C23.61 45.5, 17.19 44.29, 12.82 42.16 C8.45 40.03, 3.89 35.91, 1.94 31.59 C-0.02 27.26, -0.24 20.81, 1.08 16.21 C2.41 11.62, 5.72 6.74, 9.87 4.01 C14.03 1.28, 23.24 0.33, 26.03 -0.16 C28.83 -0.65, 26.69 0.64, 26.64 1.08 M22.68 0.35 C27.14 0.04, 32.6 2.19, 36.36 5.12 C40.13 8.06, 44.34 13.1, 45.28 17.97 C46.22 22.83, 44.5 30.15, 42 34.32 C39.5 38.49, 34.92 41.53, 30.28 42.99 C25.63 44.45, 18.8 44.65, 14.14 43.11 C9.48 41.57, 4.57 37.83, 2.31 33.73 C0.06 29.64, -0.47 23.15, 0.58 18.52 C1.63 13.89, 4.94 9.01, 8.62 5.97 C12.3 2.94, 20.41 1.19, 22.66 0.32 C24.91 -0.56, 22.3 0.47, 22.13 0.74" stroke="#495057" stroke-width="2" fill="none"></path></g><g stroke-linecap="round"><g transform="translate(659.4093255267362 201.6394612729173) rotate(0 78.20341088592204 -95.1027749212185)" fill-rule="evenodd"><path d="M-0.13 1.17 L156.93 -0.35 L156.49 -189.49 L-0.45 -188.34 L-0.93 0.8" stroke="none" stroke-width="0" fill="#ffffff" fill-rule="evenodd"></path><path d="M0 0 C44.35 -0.94, 87.34 0.65, 157.12 -1.27 M0 0 C38.98 -0.4, 78.9 -0.92, 157.12 -1.27 M157.12 -1.27 C157.43 -48.39, 154.9 -94.16, 157.12 -190.21 M157.12 -1.27 C158.5 -46.38, 158.74 -91.11, 157.12 -190.21 M157.12 -190.21 C111.01 -191.07, 67.75 -190.09, -0.72 -190.21 M157.12 -190.21 C110.71 -189.16, 63.65 -189.36, -0.72 -190.21 M-0.72 -190.21 C-2.43 -129.7, -0.53 -66.74, 0 0 M-0.72 -190.21 C-0.85 -123.8, -1.21 -56.33, 0 0 M0 0 C0 0, 0 0, 0 0 M0 0 C0 0, 0 0, 0 0" stroke="#495057" stroke-width="2" fill="none"></path></g></g><mask></mask><g stroke-linecap="round"><g transform="translate(769.3307476844602 63.3906369335391) rotate(0 10.927312619770419 -4.442520283984322)" fill-rule="evenodd"><path d="M-0.17 -0.49 L-9.68 1.88 L-7.55 -12.72 L-21.52 -15.48 L-10.61 -23.58 L-19.09 -29.89 L-7.59 -33.36 L-10.57 -45.53 L-1.53 -41.33 L0.52 -51.56 L11.65 -44.98 L16.55 -52.42 L22.37 -42.6 L32.17 -45.84 L32.49 -36 L40.4 -30.13 L36.17 -23.54 L43.52 -15.98 L34.38 -12.8 L39.61 -0.75 L26.86 -2.56 L36.98 37.25 L29.65 32.43 L24.28 42.3 L12.7 1.26 L-0.18 38.84 L-3.41 31.1 L-16.78 38.83 L-1.49 -0.39" stroke="none" stroke-width="0" fill="#ffec99" fill-rule="evenodd"></path><path d="M0 0 C-2.69 -0.09, -5.61 0.39, -11.56 -0.09 M0 0 C-3.62 0.14, -7.99 0.41, -11.56 -0.09 M-11.56 -0.09 C-10.72 -5.1, -9.52 -9.05, -7.47 -11.26 M-11.56 -0.09 C-10.24 -3.85, -8.78 -7.65, -7.47 -11.26 M-7.47 -11.26 C-10.14 -12.64, -15.2 -13.92, -19.53 -14.99 M-7.47 -11.26 C-12.02 -13.1, -16.71 -14.81, -19.53 -14.99 M-19.53 -14.99 C-16.16 -17.02, -13.94 -20.28, -11.55 -22.92 M-19.53 -14.99 C-16.69 -18.22, -13.19 -21.57, -11.55 -22.92 M-11.55 -22.92 C-12.93 -23.87, -15.39 -27.84, -19.89 -31.21 M-11.55 -22.92 C-14.25 -25.43, -15.91 -26.84, -19.89 -31.21 M-19.89 -31.21 C-16.32 -31.68, -12.49 -33, -8.92 -33.46 M-19.89 -31.21 C-16.26 -32.2, -12.77 -32.63, -8.92 -33.46 M-8.92 -33.46 C-9.95 -37.91, -10.84 -41.53, -10.92 -43.75 M-8.92 -33.46 C-9.55 -36.74, -9.68 -39.27, -10.92 -43.75 M-10.92 -43.75 C-8.38 -42.83, -4.08 -41.65, 0.2 -42.06 M-10.92 -43.75 C-8.06 -42.95, -5.52 -42.96, 0.2 -42.06 M0.2 -42.06 C-0.61 -45.98, 0.09 -47.6, 0.07 -51.29 M0.2 -42.06 C0.04 -45.98, 0.45 -49.25, 0.07 -51.29 M0.07 -51.29 C4.93 -48.38, 6.82 -47.61, 9.91 -45.87 M0.07 -51.29 C2.92 -50.33, 4.93 -49.27, 9.91 -45.87 M9.91 -45.87 C11.81 -47.54, 13.75 -51.11, 15.79 -52.51 M9.91 -45.87 C11.65 -47.75, 13.03 -49.15, 15.79 -52.51 M15.79 -52.51 C18.2 -50.05, 18.07 -48.54, 21.86 -44.53 M15.79 -52.51 C16.96 -51.09, 18.87 -49.19, 21.86 -44.53 M21.86 -44.53 C26.7 -43.96, 29.91 -44.96, 33.5 -46.12 M21.86 -44.53 C23.8 -44.59, 26.48 -44.56, 33.5 -46.12 M33.5 -46.12 C33.8 -43.83, 32.7 -40.05, 32.38 -36.92 M33.5 -46.12 C33.25 -43.01, 32.25 -39.15, 32.38 -36.92 M32.38 -36.92 C34.87 -34.99, 39.04 -33.72, 41.06 -32.11 M32.38 -36.92 C34.61 -35.34, 37.79 -34.18, 41.06 -32.11 M41.06 -32.11 C39.08 -30.32, 39.48 -27.99, 35.28 -24.18 M41.06 -32.11 C39.75 -29.88, 37.56 -28, 35.28 -24.18 M35.28 -24.18 C36.41 -22.2, 39.15 -21.5, 41.75 -17.57 M35.28 -24.18 C37.99 -21.64, 39.78 -19.35, 41.75 -17.57 M41.75 -17.57 C40.21 -16.76, 37.32 -13.93, 34.45 -12.42 M41.75 -17.57 C39.94 -16.05, 38.36 -15.2, 34.45 -12.42 M34.45 -12.42 C35.77 -8.91, 37.21 -7.2, 38.93 -0.97 M34.45 -12.42 C36.4 -8.11, 37.11 -4.81, 38.93 -0.97 M38.93 -0.97 C34.77 -1.69, 29.24 0.02, 25.73 -0.66 M38.93 -0.97 C34.89 -0.41, 32.06 -0.55, 25.73 -0.66 M25.73 -0.66 C29.26 10.91, 33.75 24.43, 36.38 35.52 M25.73 -0.66 C30.05 13.57, 33.71 26.3, 36.38 35.52 M36.38 35.52 C33.45 35.14, 31.33 33.06, 28.51 32.43 M36.38 35.52 C34.04 34.56, 30.99 33.46, 28.51 32.43 M28.51 32.43 C26.79 36.07, 25.09 41.01, 22.42 43.63 M28.51 32.43 C27.03 36.44, 24.27 39.78, 22.42 43.63 M22.42 43.63 C19.62 33.22, 19.12 22.55, 13.28 2.25 M22.42 43.63 C18.23 27.81, 16.18 14.62, 13.28 2.25 M13.28 2.25 C9.33 11.82, 8.29 25.32, 1.3 40.52 M13.28 2.25 C7.67 17.88, 4.02 32.66, 1.3 40.52 M1.3 40.52 C-0.68 37.07, -1.21 36.3, -3.63 30.59 M1.3 40.52 C-0.62 37.47, -2.22 33.67, -3.63 30.59 M-3.63 30.59 C-9.35 33.78, -14.16 37.09, -17.24 38.16 M-3.63 30.59 C-8.38 34.23, -12.94 36.11, -17.24 38.16 M-17.24 38.16 C-11.49 27.53, -9.65 19.24, 0 0 M-17.24 38.16 C-13.23 26.59, -6.36 17.1, 0 0 M0 0 C0 0, 0 0, 0 0 M0 0 C0 0, 0 0, 0 0" stroke="#495057" stroke-width="2" fill="none"></path></g></g><mask></mask><g stroke-linecap="round" transform="translate(758.7501718580352 18.530596220906773) rotate(0 22.446570386750864 22.446570386750864)"><path d="M17.85 0 C22.27 -1.25, 28.64 0.36, 32.94 2.73 C37.24 5.11, 41.83 9.8, 43.66 14.26 C45.49 18.72, 45.5 24.93, 43.93 29.5 C42.37 34.08, 38.34 39.22, 34.27 41.7 C30.2 44.18, 24.25 45.16, 19.5 44.4 C14.75 43.64, 9.03 40.75, 5.77 37.16 C2.51 33.57, 0.11 27.69, -0.06 22.84 C-0.24 18, 1.48 11.8, 4.73 8.09 C7.97 4.38, 16.85 1.8, 19.43 0.58 C22.01 -0.63, 20.19 0.56, 20.2 0.82 M20.29 0.01 C24.84 -0.9, 30.63 0.46, 34.67 3.13 C38.72 5.79, 43.19 11.26, 44.58 15.99 C45.97 20.73, 45.07 27.21, 43.01 31.55 C40.95 35.88, 36.44 39.82, 32.22 42.01 C28 44.19, 22.19 45.73, 17.69 44.67 C13.2 43.6, 8.3 39.47, 5.27 35.61 C2.23 31.76, -0.67 26.2, -0.52 21.55 C-0.38 16.9, 2.79 11.29, 6.13 7.72 C9.46 4.15, 17.16 1.23, 19.49 0.15 C21.82 -0.92, 20.09 1, 20.09 1.29" stroke="none" stroke-width="0" fill="#40c057"></path><path d="M25.24 0.33 C29.8 0.55, 35.53 3.23, 38.86 6.73 C42.19 10.24, 44.88 16.6, 45.22 21.38 C45.55 26.16, 43.85 31.69, 40.88 35.43 C37.92 39.17, 32.23 42.71, 27.43 43.81 C22.63 44.91, 16.31 44.14, 12.08 42.03 C7.85 39.91, 3.92 35.48, 2.05 31.13 C0.18 26.77, -0.49 20.5, 0.86 15.92 C2.21 11.34, 5.99 6.25, 10.14 3.65 C14.28 1.05, 23.07 0.86, 25.73 0.33 C28.39 -0.2, 26.09 0.14, 26.1 0.48 M22.6 -0.27 C27.22 -0.77, 33.24 1.74, 36.92 4.73 C40.6 7.71, 43.83 12.86, 44.69 17.65 C45.55 22.44, 44.52 29.07, 42.06 33.47 C39.61 37.87, 34.44 42.31, 29.97 44.06 C25.49 45.81, 19.73 45.6, 15.21 44 C10.69 42.4, 5.3 38.76, 2.85 34.45 C0.4 30.15, -0.3 23.07, 0.49 18.17 C1.28 13.27, 3.92 8.19, 7.6 5.04 C11.28 1.89, 20.2 -0.05, 22.57 -0.73 C24.95 -1.41, 21.89 0.38, 21.83 0.95" stroke="#495057" stroke-width="2" fill="none"></path></g><g stroke-linecap="round"><g transform="translate(207.5330217122455 26.07140930744663) rotate(0 46.45349909819379 26.80181404584846)" fill-rule="evenodd"><path d="M1.26 1.45 L-16.86 14.15 L-14.31 37.29 L-1 51.29 L24.6 54.3 L32.41 36.11 L58.09 35.16 L58.91 53.63 L75.24 50.99 L78.43 35.53 L93.29 35.21 L95.73 52.21 L107.74 52.12 L105.98 13.62 L35.63 14.82 L18.74 -0.47 L1.43 -0.23" stroke="none" stroke-width="0" fill="#ffec99" fill-rule="evenodd"></path><path d="M0 0 C-5.28 2.89, -4.99 5.95, -15.12 14.75 M0 0 C-5.33 5.3, -9.75 9.62, -15.12 14.75 M-15.12 14.75 C-15.78 21.25, -16.69 27.16, -14.48 37.34 M-15.12 14.75 C-15.25 23.8, -15.62 32.22, -14.48 37.34 M-14.48 37.34 C-9.43 42.26, -5.9 47.11, 0.76 53.17 M-14.48 37.34 C-11.22 40.6, -8 43.03, 0.76 53.17 M0.76 53.17 C8 53.95, 11.54 51.95, 24.01 53.17 M0.76 53.17 C6.49 53.25, 10.73 53.24, 24.01 53.17 M24.01 53.17 C27.64 45.76, 29.24 40.48, 33.91 35.08 M24.01 53.17 C26.52 48.8, 29.84 43.17, 33.91 35.08 M33.91 35.08 C40.91 36.46, 48.2 36.23, 59.12 33.98 M33.91 35.08 C42.98 34.01, 51.09 34.75, 59.12 33.98 M59.12 33.98 C60.51 39.55, 58.96 45.44, 59.82 52.71 M59.12 33.98 C59.87 41.43, 60.41 47.3, 59.82 52.71 M59.82 52.71 C67.81 54.22, 74.73 51.61, 76.74 52.97 M59.82 52.71 C65.7 53.4, 70.85 53.74, 76.74 52.97 M76.74 52.97 C75.99 46.45, 75.5 44.19, 76.59 34.21 M76.74 52.97 C77.29 46.29, 76.74 40.88, 76.59 34.21 M76.59 34.21 C82.34 33.57, 87.97 35.17, 94.13 33.92 M76.59 34.21 C81.42 33.29, 84.38 33.87, 94.13 33.92 M94.13 33.92 C93.65 42.2, 93.53 49.41, 95.35 53.71 M94.13 33.92 C94.25 40.44, 95.94 47.01, 95.35 53.71 M95.35 53.71 C99.9 52.6, 103.95 52.74, 108.03 53.79 M95.35 53.71 C98.78 53.68, 102.45 53.85, 108.03 53.79 M108.03 53.79 C107.43 43.3, 107.25 32.68, 107.88 14.22 M108.03 53.79 C108.29 43.09, 108.92 33.25, 107.88 14.22 M107.88 14.22 C90.63 13.91, 71 13.32, 35.93 14.6 M107.88 14.22 C85.72 15.39, 62.53 14.54, 35.93 14.6 M35.93 14.6 C30.96 11.84, 25.69 3.01, 20.53 -0.19 M35.93 14.6 C32.65 11.47, 28.85 7.61, 20.53 -0.19 M20.53 -0.19 C13.8 -1.08, 6.19 1.01, 0 0 M20.53 -0.19 C14.77 -1.06, 7.01 -1.11, 0 0 M0 0 C0 0, 0 0, 0 0 M0 0 C0 0, 0 0, 0 0" stroke="#495057" stroke-width="2" fill="none"></path></g></g><mask></mask><g stroke-linecap="round"><g transform="translate(172.64033485180335 105.91832192461425) rotate(0 78.70936241981872 -0.5887188477486234)"><path d="M0 0 C34.68 -1.85, 68.9 -1.08, 157.42 -1.18 M0 0 C48.28 -1.29, 94.76 -1.1, 157.42 -1.18" stroke="#495057" stroke-width="2" fill="none"></path></g><g transform="translate(172.64033485180335 105.91832192461425) rotate(0 78.70936241981872 -0.5887188477486234)"><path d="M133.93 7.39 C139.11 4.31, 143.89 3.46, 157.42 -1.18 M133.93 7.39 C141.82 4.94, 147.89 2.9, 157.42 -1.18" stroke="#495057" stroke-width="2" fill="none"></path></g><g transform="translate(172.64033485180335 105.91832192461425) rotate(0 78.70936241981872 -0.5887188477486234)"><path d="M133.92 -9.71 C139.25 -9.03, 144.03 -6.12, 157.42 -1.18 M133.92 -9.71 C141.74 -7, 147.81 -3.88, 157.42 -1.18" stroke="#495057" stroke-width="2" fill="none"></path></g></g><mask></mask><g stroke-linecap="round"><g transform="translate(508.63537699857534 101.21106688021973) rotate(0 74.70597205074318 -1.5371599187396896)"><path d="M-0.94 -0.11 C24 -0.66, 123.99 -2.97, 149.17 -3.41 M0.76 -1.22 C25.56 -1.58, 123.27 -2.03, 148.09 -2.05" stroke="#495057" stroke-width="2" fill="none"></path></g><g transform="translate(508.63537699857534 101.21106688021973) rotate(0 74.70597205074318 -1.5371599187396896)"><path d="M124.62 6.57 C130.57 4.1, 136.32 3.4, 148.09 -2.05 M124.62 6.57 C132.74 2.82, 139.69 1.97, 148.09 -2.05" stroke="#495057" stroke-width="2" fill="none"></path></g><g transform="translate(508.63537699857534 101.21106688021973) rotate(0 74.70597205074318 -1.5371599187396896)"><path d="M124.57 -10.53 C130.51 -8.54, 136.28 -4.78, 148.09 -2.05 M124.57 -10.53 C132.83 -8.75, 139.79 -4.06, 148.09 -2.05" stroke="#495057" stroke-width="2" fill="none"></path></g></g><mask></mask><g stroke-linecap="round"><g transform="translate(531.1450205334195 23.123871668646643) rotate(0 46.45349909819379 26.80181404584846)" fill-rule="evenodd"><path d="M0.67 -1.38 L-17.07 15.06 L-13.84 36.34 L1.24 51.36 L24.44 52.23 L34.59 33.97 L58.48 33.48 L58.89 54.44 L76.19 54.76 L76.36 36.03 L93.59 32.13 L96.02 53.8 L108.87 55.57 L107.19 15.42 L37.73 14.93 L19.54 -0.56 L-0.79 -1.52" stroke="none" stroke-width="0" fill="#ffec99" fill-rule="evenodd"></path><path d="M0 0 C-4.17 4.04, -5.9 9.55, -15.12 14.75 M0 0 C-5.06 4.28, -9.36 9.84, -15.12 14.75 M-15.12 14.75 C-15.15 22.45, -14.13 33.74, -14.48 37.34 M-15.12 14.75 C-14.56 20.72, -14 27.13, -14.48 37.34 M-14.48 37.34 C-9.52 42.02, -5.14 50.43, 0.76 53.17 M-14.48 37.34 C-10.67 41.38, -6.98 46.92, 0.76 53.17 M0.76 53.17 C9.5 51.62, 15.24 51.89, 24.01 53.17 M0.76 53.17 C5.86 53.04, 10.65 52.48, 24.01 53.17 M24.01 53.17 C28.87 45.95, 33.23 37.45, 33.91 35.08 M24.01 53.17 C27.13 48.61, 28.21 43.81, 33.91 35.08 M33.91 35.08 C40.79 34.79, 43.33 33.07, 59.12 33.98 M33.91 35.08 C43.02 34.94, 49.94 34.79, 59.12 33.98 M59.12 33.98 C57.92 40.27, 60.14 46.19, 59.82 52.71 M59.12 33.98 C59.33 38.75, 59.8 42.01, 59.82 52.71 M59.82 52.71 C66.33 53.44, 69.87 53.24, 76.74 52.97 M59.82 52.71 C64.09 52.42, 66.5 53.1, 76.74 52.97 M76.74 52.97 C78.14 49.02, 76.87 42.73, 76.59 34.21 M76.74 52.97 C76.33 47.33, 77.67 41.99, 76.59 34.21 M76.59 34.21 C81.59 33.12, 85.77 32.45, 94.13 33.92 M76.59 34.21 C80.67 34.04, 83.84 33.22, 94.13 33.92 M94.13 33.92 C93.21 37.45, 93.54 45.08, 95.35 53.71 M94.13 33.92 C94.81 41.63, 94.49 47.36, 95.35 53.71 M95.35 53.71 C99.64 53.57, 102.17 54.81, 108.03 53.79 M95.35 53.71 C98.94 54.17, 102.39 53.57, 108.03 53.79 M108.03 53.79 C108.4 42.39, 107.11 28.36, 107.88 14.22 M108.03 53.79 C108.9 45.66, 108.24 36.1, 107.88 14.22 M107.88 14.22 C85.38 15.07, 59.83 16.24, 35.93 14.6 M107.88 14.22 C80.61 13.79, 54.2 15.45, 35.93 14.6 M35.93 14.6 C32.54 11.37, 26 3.58, 20.53 -0.19 M35.93 14.6 C32.15 12.56, 29.2 9.24, 20.53 -0.19 M20.53 -0.19 C12.4 -1.55, 6.8 1.7, 0 0 M20.53 -0.19 C12.09 0.05, 5.6 -0.64, 0 0 M0 0 C0 0, 0 0, 0 0 M0 0 C0 0, 0 0, 0 0" stroke="#495057" stroke-width="2" fill="none"></path></g></g><mask></mask></svg>